<?xml version="1.0" encoding="UTF-8" standalone="no"?>
<!-- Created with Inkscape (http://www.inkscape.org/) -->

<svg
   version="1.1"
   id="svg1"
   width="1536"
   height="1536"
   viewBox="0 0 1536 1536"
   xmlns="http://www.w3.org/2000/svg"
   xmlns:svg="http://www.w3.org/2000/svg">
  <defs
     id="defs1" />
  <g
     id="g1">
    <g
       id="g2">
      <path
         style="fill:#0a838d"
         d="m 305.66667,1518.3333 c -0.36667,-0.3666 -0.65978,-1.1541 -0.65136,-1.75 0.009,-0.6443 0.33645,-0.5776 0.8077,0.1646 0.62866,0.99 48.40484,1.3004 231.23468,1.5021 l 230.44231,0.2543 -230.58333,0.2478 c -126.82084,0.1364 -230.88334,-0.052 -231.25,-0.4188 z m 711.65653,-1.083 c 19.1527,-0.152 50.2027,-0.1519 69,2e-4 18.7972,0.1522 3.1268,0.2766 -34.8232,0.2765 -37.95,-10e-5 -53.32957,-0.1246 -34.1768,-0.2767 z m 186.9268,-0.9853 c 2.6125,-0.206 6.8875,-0.206 9.5,0 2.6125,0.206 0.475,0.3745 -4.75,0.3745 -5.225,0 -7.3625,-0.1685 -4.75,-0.3745 z m 20.2094,-1.1569 c 3.1185,-0.479 4.1061,-1.139 4.6503,-3.1081 0.5782,-2.0919 0.7072,-2.1654 0.7906,-0.45 0.1463,3.009 -1.8358,4.4686 -5.8503,4.3081 l -3.55,-0.1419 z m 5.9608,-62.6081 c -9e-4,-11 0.1452,-15.6364 0.3247,-10.3032 0.1794,5.3332 0.1801,14.3332 0,20 -0.1786,5.6668 -0.3254,1.3032 -0.3263,-9.6968 z m -925.40489,-28.3572 c -0.0141,-4.0189 1.10356,-5.9214 14.39316,-24.5 7.92465,-11.0785 20.21221,-28.0137 27.30569,-37.6337 l 12.89722,-17.4909 406.8909,0.3477 c 223.78999,0.1913 407.42622,0.5532 408.08052,0.8043 1.374,0.5272 12.7372,14.5891 20.0804,24.8494 14.0976,19.6977 36.4303,53.6677 35.993,54.7485 -0.3804,0.9405 -0.517,0.9279 -0.5773,-0.053 -0.064,-1.0469 -0.496,-1.0469 -2.3289,0 -1.8254,1.0426 -88.9652,1.2453 -461.71479,1.0737 -358.88156,-0.1652 -459.63333,0.054 -460.23468,1 -0.4284,0.6741 -0.7767,-0.7212 -0.78522,-3.1457 z M 559.5,1301.0222 c -10.45,-0.3488 -19.17266,-0.7215 -19.38369,-0.8282 -0.21103,-0.1067 -0.0771,-7.7315 0.29767,-16.944 1.55286,-38.1747 4.01858,-59.0201 8.75204,-73.9904 2.53455,-8.0159 3.66387,-10.042 8.5222,-15.2896 7.57319,-8.1799 22.47192,-17.9245 43.94191,-28.7405 56.05297,-28.238 84.49154,-34.5439 161.86987,-35.8926 38.20598,-0.6659 50.58769,0.055 73,4.2525 49.1866,9.2111 94.22699,25.9258 124.61266,46.2443 11.74609,7.8544 24.27245,20.1989 27.71712,27.3147 4.84621,10.0109 8.39293,42.5002 7.95292,72.8516 l -0.2827,19.5 -4.5,0.8528 c -5.24071,0.9931 -404.29397,1.6108 -432.5,0.6694 z M 403.2,1297.8 c -0.66,-0.66 -1.2,-1.646 -1.2,-2.1911 0,-0.5452 0.5625,-0.2369 1.25,0.6849 1.06122,1.423 3.66638,1.7203 17.25,1.9685 l 16,0.2923 -16.05,0.2227 c -11.41231,0.1583 -16.39674,-0.124 -17.25,-0.9773 z m 48.55,-0.5322 c 2.3375,-0.2105 6.1625,-0.2105 8.5,0 2.3375,0.2105 0.425,0.3828 -4.25,0.3828 -4.675,0 -6.5875,-0.1723 -4.25,-0.3828 z m 586.0179,0.01 c 1.7974,-0.2226 4.4974,-0.218 6,0.01 1.5027,0.2281 0.032,0.4102 -3.2679,0.4046 -3.3,-0.01 -4.5294,-0.1923 -2.7321,-0.4148 z m 58.4267,-0.021 c 5.882,-0.1764 15.782,-0.1771 22,0 6.218,0.1757 1.4054,0.3201 -10.6946,0.3209 -12.1,7e-4 -17.1874,-0.1431 -11.3054,-0.3196 z m -617.42669,-0.979 c 1.79735,-0.2226 4.49735,-0.218 6,0.01 1.50265,0.2281 0.0321,0.4102 -3.26791,0.4046 -3.3,-0.01 -4.52944,-0.1923 -2.73209,-0.4148 z m 550.25999,-0.7417 c -0.6693,-0.8065 -0.985,-2.044 -0.7014,-2.75 0.3192,-0.7946 0.5457,-0.6046 0.5946,0.4986 0.043,0.9802 1.0914,2.1892 2.3289,2.6866 1.5226,0.6121 1.7238,0.9249 0.6224,0.9678 -0.8951,0.035 -2.1752,-0.5965 -2.8445,-1.403 z m 101.9608,-5.8289 0.4888,-7.2047 0.3128,6.3984 c 0.1721,3.5192 -0.048,6.7613 -0.4887,7.2047 -0.4409,0.4434 -0.5817,-2.4359 -0.3129,-6.3984 z m -628.03083,5.4137 c 2.57117,-0.4598 3.63544,-1.2595 4.15032,-3.1184 0.57965,-2.0927 0.70869,-2.166 0.79213,-0.45 0.14108,2.9014 -1.80418,4.4714 -5.35032,4.3184 l -3.05,-0.1317 z m 524.12103,-5.7017 c 0.048,-1.165 0.285,-1.4019 0.6042,-0.6042 0.2889,0.7219 0.2534,1.5844 -0.079,1.9167 -0.3323,0.3323 -0.5687,-0.2584 -0.5253,-1.3125 z M 403.28601,1283.5 c 0.008,-2.75 0.20172,-3.7563 0.43157,-2.2363 0.22986,1.5201 0.22371,3.7701 -0.0136,5 -0.23736,1.23 -0.42542,-0.014 -0.41792,-2.7637 z m 104.90894,0 c 0.0204,-1.65 0.2445,-2.2039 0.49804,-1.231 0.25354,0.973 0.23687,2.323 -0.0371,3 -0.27393,0.6771 -0.48137,-0.119 -0.46099,-1.769 z m 517.96295,0.5 c 0,-1.375 0.227,-1.9375 0.5044,-1.25 0.2774,0.6875 0.2774,1.8125 0,2.5 -0.2774,0.6875 -0.5044,0.125 -0.5044,-1.25 z m -0.963,-6.5 c 0.02,-1.65 0.2445,-2.2039 0.4981,-1.231 0.2535,0.973 0.2369,2.323 -0.037,3 -0.2739,0.6771 -0.4813,-0.119 -0.461,-1.769 z m -515.99995,-2 c 0.0204,-1.65 0.2445,-2.2039 0.49804,-1.231 0.25354,0.973 0.23687,2.323 -0.0371,3 -0.27393,0.6771 -0.48137,-0.119 -0.46099,-1.769 z m 621.09105,-6 c 0.01,-2.75 0.2017,-3.7563 0.4316,-2.2363 0.2298,1.5201 0.2237,3.7701 -0.014,5 -0.2373,1.23 -0.4254,-0.014 -0.4179,-2.7637 z m -106.054,0.5 c 0,-1.925 0.2058,-2.7125 0.4573,-1.75 0.2516,0.9625 0.2516,2.5375 0,3.5 -0.2515,0.9625 -0.4573,0.175 -0.4573,-1.75 z m -514,-2 c 0,-1.925 0.2058,-2.7125 0.45733,-1.75 0.25152,0.9625 0.25152,2.5375 0,3.5 -0.25153,0.9625 -0.45733,0.175 -0.45733,-1.75 z m -105.97982,-1.5 c 0.0111,-2.2 0.21589,-2.9823 0.45508,-1.7383 0.23919,1.2439 0.23011,3.0439 -0.0202,4 -0.25029,0.956 -0.446,-0.062 -0.4349,-2.2617 z M 1023.232,1262 c 0,-1.925 0.2058,-2.7125 0.4573,-1.75 0.2516,0.9625 0.2516,2.5375 0,3.5 -0.2515,0.9625 -0.4573,0.175 -0.4573,-1.75 z m -512.03705,-1.5 c 0.0204,-1.65 0.2445,-2.2039 0.49804,-1.231 0.25354,0.973 0.23687,2.323 -0.0371,3 -0.27393,0.6771 -0.48137,-0.119 -0.46099,-1.769 z m 617.99995,-3 c 0.02,-1.65 0.2445,-2.2039 0.4981,-1.231 0.2535,0.973 0.2369,2.323 -0.037,3 -0.2739,0.6771 -0.4813,-0.119 -0.461,-1.769 z m -723.99995,-2 c 0.0204,-1.65 0.2445,-2.2039 0.49804,-1.231 0.25354,0.973 0.23687,2.323 -0.0371,3 -0.27393,0.6771 -0.48137,-0.119 -0.46099,-1.769 z m 616.99995,-1 c 0.02,-1.65 0.2445,-2.2039 0.4981,-1.231 0.2535,0.973 0.2369,2.323 -0.037,3 -0.2739,0.6771 -0.4813,-0.119 -0.461,-1.769 z M 512.15789,1254 c 0,-1.375 0.22698,-1.9375 0.50439,-1.25 0.27741,0.6875 0.27741,1.8125 0,2.5 -0.27741,0.6875 -0.50439,0.125 -0.50439,-1.25 z m 616.03701,-4.5 c 0.02,-1.65 0.2445,-2.2039 0.4981,-1.231 0.2535,0.973 0.2369,2.323 -0.037,3 -0.2739,0.6771 -0.4813,-0.119 -0.461,-1.769 z m -614.99995,-2 c 0.0204,-1.65 0.2445,-2.2039 0.49804,-1.231 0.25354,0.973 0.23687,2.323 -0.0371,3 -0.27393,0.6771 -0.48137,-0.119 -0.46099,-1.769 z m 507.96295,0.5 c 0,-1.375 0.227,-1.9375 0.5044,-1.25 0.2774,0.6875 0.2774,1.8125 0,2.5 -0.2774,0.6875 -0.5044,0.125 -0.5044,-1.25 z m -614.96295,-1.5 c 0.0204,-1.65 0.2445,-2.2039 0.49804,-1.231 0.25354,0.973 0.23687,2.323 -0.0371,3 -0.27393,0.6771 -0.48137,-0.119 -0.46099,-1.769 z m 107.96294,-4.5 c 0,-1.375 0.22698,-1.9375 0.50439,-1.25 0.27741,0.6875 0.27741,1.8125 0,2.5 -0.27741,0.6875 -0.50439,0.125 -0.50439,-1.25 z m 506.00001,0 c 0,-1.375 0.227,-1.9375 0.5044,-1.25 0.2774,0.6875 0.2774,1.8125 0,2.5 -0.2774,0.6875 -0.5044,0.125 -0.5044,-1.25 z m 107,0 c 0,-1.375 0.227,-1.9375 0.5044,-1.25 0.2774,0.6875 0.2774,1.8125 0,2.5 -0.2774,0.6875 -0.5044,0.125 -0.5044,-1.25 z m -720.00001,-3 c 0,-1.375 0.22698,-1.9375 0.50439,-1.25 0.27741,0.6875 0.27741,1.8125 0,2.5 -0.27741,0.6875 -0.50439,0.125 -0.50439,-1.25 z m 108,-3 c 0,-1.375 0.22698,-1.9375 0.50439,-1.25 0.27741,0.6875 0.27741,1.8125 0,2.5 -0.27741,0.6875 -0.50439,0.125 -0.50439,-1.25 z m 504.00001,0 c 0,-1.375 0.227,-1.9375 0.5044,-1.25 0.2774,0.6875 0.2774,1.8125 0,2.5 -0.2774,0.6875 -0.5044,0.125 -0.5044,-1.25 z m 107,0 c 0,-1.375 0.227,-1.9375 0.5044,-1.25 0.2774,0.6875 0.2774,1.8125 0,2.5 -0.2774,0.6875 -0.5044,0.125 -0.5044,-1.25 z m -718.00001,-4 c 0,-1.375 0.22698,-1.9375 0.50439,-1.25 0.27741,0.6875 0.27741,1.8125 0,2.5 -0.27741,0.6875 -0.50439,0.125 -0.50439,-1.25 z m 610.00001,-1 c 0,-1.375 0.227,-1.9375 0.5044,-1.25 0.2774,0.6875 0.2774,1.8125 0,2.5 -0.2774,0.6875 -0.5044,0.125 -0.5044,-1.25 z m -502.07895,-0.5833 c 0.048,-1.165 0.28494,-1.4019 0.60416,-0.6042 0.28887,0.7219 0.25335,1.5844 -0.0789,1.9167 -0.33229,0.3323 -0.56864,-0.2584 -0.52522,-1.3125 z M 1125.1579,1230 c 0,-1.375 0.227,-1.9375 0.5044,-1.25 0.2774,0.6875 0.2774,1.8125 0,2.5 -0.2774,0.6875 -0.5044,0.125 -0.5044,-1.25 z m -716.00001,-4 c 0,-1.375 0.22698,-1.9375 0.50439,-1.25 0.27741,0.6875 0.27741,1.8125 0,2.5 -0.27741,0.6875 -0.50439,0.125 -0.50439,-1.25 z m 608.00001,0 c 0,-1.375 0.227,-1.9375 0.5044,-1.25 0.2774,0.6875 0.2774,1.8125 0,2.5 -0.2774,0.6875 -0.5044,0.125 -0.5044,-1.25 z m -500.07895,-0.5833 c 0.048,-1.165 0.28494,-1.4019 0.60416,-0.6042 0.28887,0.7219 0.25335,1.5844 -0.0789,1.9167 -0.33229,0.3323 -0.56864,-0.2584 -0.52522,-1.3125 z m 606.99995,-1 c 0.048,-1.165 0.285,-1.4019 0.6042,-0.6042 0.2889,0.7219 0.2534,1.5844 -0.079,1.9167 -0.3323,0.3323 -0.5687,-0.2584 -0.5253,-1.3125 z M 518.15789,1221 c 0,-1.375 0.22698,-1.9375 0.50439,-1.25 0.27741,0.6875 0.27741,1.8125 0,2.5 -0.27741,0.6875 -0.50439,0.125 -0.50439,-1.25 z m 498.00001,0 c 0,-1.375 0.227,-1.9375 0.5044,-1.25 0.2774,0.6875 0.2774,1.8125 0,2.5 -0.2774,0.6875 -0.5044,0.125 -0.5044,-1.25 z m -606.00001,-1 c 0,-1.375 0.22698,-1.9375 0.50439,-1.25 0.27741,0.6875 0.27741,1.8125 0,2.5 -0.27741,0.6875 -0.50439,0.125 -0.50439,-1.25 z m 713.00001,-1 c 0,-1.375 0.227,-1.9375 0.5044,-1.25 0.2774,0.6875 0.2774,1.8125 0,2.5 -0.2774,0.6875 -0.5044,0.125 -0.5044,-1.25 z m -604.07895,-2.5833 c 0.048,-1.165 0.28494,-1.4019 0.60416,-0.6042 0.28887,0.7219 0.25335,1.5844 -0.0789,1.9167 -0.33229,0.3323 -0.56864,-0.2584 -0.52522,-1.3125 z m 495.99995,0 c 0.048,-1.165 0.285,-1.4019 0.6042,-0.6042 0.2889,0.7219 0.2534,1.5844 -0.079,1.9167 -0.3323,0.3323 -0.5687,-0.2584 -0.5253,-1.3125 z m -603.99995,-2 c 0.048,-1.165 0.28494,-1.4019 0.60416,-0.6042 0.28887,0.7219 0.25335,1.5844 -0.0789,1.9167 -0.33229,0.3323 -0.56864,-0.2584 -0.52522,-1.3125 z M 1122.1579,1214 c 0,-1.375 0.227,-1.9375 0.5044,-1.25 0.2774,0.6875 0.2774,1.8125 0,2.5 -0.2774,0.6875 -0.5044,0.125 -0.5044,-1.25 z m -108,-2 c 0,-1.375 0.227,-1.9375 0.5044,-1.25 0.2774,0.6875 0.2774,1.8125 0,2.5 -0.2774,0.6875 -0.5044,0.125 -0.5044,-1.25 z m -494.07895,-0.5833 c 0.048,-1.165 0.28494,-1.4019 0.60416,-0.6042 0.28887,0.7219 0.25335,1.5844 -0.0789,1.9167 -0.33229,0.3323 -0.56864,-0.2584 -0.52522,-1.3125 z m -108,-2 c 0.048,-1.165 0.28494,-1.4019 0.60416,-0.6042 0.28887,0.7219 0.25335,1.5844 -0.0789,1.9167 -0.33229,0.3323 -0.56864,-0.2584 -0.52522,-1.3125 z m 708.99995,0 c 0.048,-1.165 0.285,-1.4019 0.6042,-0.6042 0.2889,0.7219 0.2534,1.5844 -0.079,1.9167 -0.3323,0.3323 -0.5687,-0.2584 -0.5253,-1.3125 z m -599.99995,-2 c 0.048,-1.165 0.28494,-1.4019 0.60416,-0.6042 0.28887,0.7219 0.25335,1.5844 -0.0789,1.9167 -0.33229,0.3323 -0.56864,-0.2584 -0.52522,-1.3125 z m 491.99995,0 c 0.048,-1.165 0.285,-1.4019 0.6042,-0.6042 0.2889,0.7219 0.2534,1.5844 -0.079,1.9167 -0.3323,0.3323 -0.5687,-0.2584 -0.5253,-1.3125 z m -599.99995,-3 c 0.048,-1.165 0.28494,-1.4019 0.60416,-0.6042 0.28887,0.7219 0.25335,1.5844 -0.0789,1.9167 -0.33229,0.3323 -0.56864,-0.2584 -0.52522,-1.3125 z m 706.99995,0 c 0.048,-1.165 0.285,-1.4019 0.6042,-0.6042 0.2889,0.7219 0.2534,1.5844 -0.079,1.9167 -0.3323,0.3323 -0.5687,-0.2584 -0.5253,-1.3125 z m -597.99995,-1 c 0.048,-1.165 0.28494,-1.4019 0.60416,-0.6042 0.28887,0.7219 0.25335,1.5844 -0.0789,1.9167 -0.33229,0.3323 -0.56864,-0.2584 -0.52522,-1.3125 z m 489.99995,0 c 0.048,-1.165 0.285,-1.4019 0.6042,-0.6042 0.2889,0.7219 0.2534,1.5844 -0.079,1.9167 -0.3323,0.3323 -0.5687,-0.2584 -0.5253,-1.3125 z m -597.99995,-3 c 0.048,-1.165 0.28494,-1.4019 0.60416,-0.6042 0.28887,0.7219 0.25335,1.5844 -0.0789,1.9167 -0.33229,0.3323 -0.56864,-0.2584 -0.52522,-1.3125 z m 109,-1 c 0.048,-1.165 0.28494,-1.4019 0.60416,-0.6042 0.28887,0.7219 0.25335,1.5844 -0.0789,1.9167 -0.33229,0.3323 -0.56864,-0.2584 -0.52522,-1.3125 z m 487.99995,0 c 0.048,-1.165 0.285,-1.4019 0.6042,-0.6042 0.2889,0.7219 0.2534,1.5844 -0.079,1.9167 -0.3323,0.3323 -0.5687,-0.2584 -0.5253,-1.3125 z m 108,0 c 0.048,-1.165 0.285,-1.4019 0.6042,-0.6042 0.2889,0.7219 0.2534,1.5844 -0.079,1.9167 -0.3323,0.3323 -0.5687,-0.2584 -0.5253,-1.3125 z m -703.99995,-4 c 0.048,-1.165 0.28494,-1.4019 0.60416,-0.6042 0.28887,0.7219 0.25335,1.5844 -0.0789,1.9167 -0.33229,0.3323 -0.56864,-0.2584 -0.52522,-1.3125 z m 109,0 c 0.048,-1.165 0.28494,-1.4019 0.60416,-0.6042 0.28887,0.7219 0.25335,1.5844 -0.0789,1.9167 -0.33229,0.3323 -0.56864,-0.2584 -0.52522,-1.3125 z m 593.99995,0 c 0.048,-1.165 0.285,-1.4019 0.6042,-0.6042 0.2889,0.7219 0.2534,1.5844 -0.079,1.9167 -0.3323,0.3323 -0.5687,-0.2584 -0.5253,-1.3125 z m -109,-3 c 0.048,-1.165 0.285,-1.4019 0.6042,-0.6042 0.2889,0.7219 0.2534,1.5844 -0.079,1.9167 -0.3323,0.3323 -0.5687,-0.2584 -0.5253,-1.3125 z m -592.99995,-1 c 0.048,-1.165 0.28494,-1.4019 0.60416,-0.6042 0.28887,0.7219 0.25335,1.5844 -0.0789,1.9167 -0.33229,0.3323 -0.56864,-0.2584 -0.52522,-1.3125 z m 700.99995,0 c 0.048,-1.165 0.285,-1.4019 0.6042,-0.6042 0.2889,0.7219 0.2534,1.5844 -0.079,1.9167 -0.3323,0.3323 -0.5687,-0.2584 -0.5253,-1.3125 z m -590.99995,-3 c 0.048,-1.165 0.28494,-1.4019 0.60416,-0.6042 0.28887,0.7219 0.25335,1.5844 -0.0789,1.9167 -0.33229,0.3323 -0.56864,-0.2584 -0.52522,-1.3125 z m 481.99995,0 c 0.048,-1.165 0.285,-1.4019 0.6042,-0.6042 0.2889,0.7219 0.2534,1.5844 -0.079,1.9167 -0.3323,0.3323 -0.5687,-0.2584 -0.5253,-1.3125 z m -590.99995,-1 c 0.048,-1.165 0.28494,-1.4019 0.60416,-0.6042 0.28887,0.7219 0.25335,1.5844 -0.0789,1.9167 -0.33229,0.3323 -0.56864,-0.2584 -0.52522,-1.3125 z m 111,-6 c 0.048,-1.165 0.28494,-1.4019 0.60416,-0.6042 0.28887,0.7219 0.25335,1.5844 -0.0789,1.9167 -0.33229,0.3323 -0.56864,-0.2584 -0.52522,-1.3125 z m 477.49245,-0.9881 c -0.3678,-1.4655 -0.4759,-2.8575 -0.2402,-3.0932 0.2358,-0.2357 0.7296,0.7705 1.0974,2.236 0.3678,1.4655 0.4759,2.8575 0.2402,3.0932 -0.2358,0.2357 -0.7296,-0.7705 -1.0974,-2.236 z m 108.5075,-1.0119 c 0.048,-1.165 0.285,-1.4019 0.6042,-0.6042 0.2889,0.7219 0.2534,1.5844 -0.079,1.9167 -0.3323,0.3323 -0.5687,-0.2584 -0.5253,-1.3125 z m -1,-4 c 0.048,-1.165 0.285,-1.4019 0.6042,-0.6042 0.2889,0.7219 0.2534,1.5844 -0.079,1.9167 -0.3323,0.3323 -0.5687,-0.2584 -0.5253,-1.3125 z m -691.99995,-4 c 0.048,-1.165 0.28494,-1.4019 0.60416,-0.6042 0.28887,0.7219 0.25335,1.5844 -0.0789,1.9167 -0.33229,0.3323 -0.56864,-0.2584 -0.52522,-1.3125 z m 110,0 c 0.048,-1.165 0.28494,-1.4019 0.60416,-0.6042 0.28887,0.7219 0.25335,1.5844 -0.0789,1.9167 -0.33229,0.3323 -0.56864,-0.2584 -0.52522,-1.3125 z m 580.99995,0 c 0.048,-1.165 0.285,-1.4019 0.6042,-0.6042 0.2889,0.7219 0.2534,1.5844 -0.079,1.9167 -0.3323,0.3323 -0.5687,-0.2584 -0.5253,-1.3125 z m -689.99995,-4 c 0.048,-1.165 0.28494,-1.4019 0.60416,-0.6042 0.28887,0.7219 0.25335,1.5844 -0.0789,1.9167 -0.33229,0.3323 -0.56864,-0.2584 -0.52522,-1.3125 z m 688.99995,0 c 0.048,-1.165 0.285,-1.4019 0.6042,-0.6042 0.2889,0.7219 0.2534,1.5844 -0.079,1.9167 -0.3323,0.3323 -0.5687,-0.2584 -0.5253,-1.3125 z m -686.99995,-7 c 0.048,-1.165 0.28494,-1.4019 0.60416,-0.6042 0.28887,0.7219 0.25335,1.5844 -0.0789,1.9167 -0.33229,0.3323 -0.56864,-0.2584 -0.52522,-1.3125 z m 684.99995,0 c 0.048,-1.165 0.285,-1.4019 0.6042,-0.6042 0.2889,0.7219 0.2534,1.5844 -0.079,1.9167 -0.3323,0.3323 -0.5687,-0.2584 -0.5253,-1.3125 z m -1.5075,-4.9881 c -0.3678,-1.4655 -0.4759,-2.8575 -0.2402,-3.0932 0.2358,-0.2357 0.7296,0.7705 1.0974,2.236 0.3678,1.4655 0.4759,2.8575 0.2402,3.0932 -0.2358,0.2357 -0.7296,-0.7705 -1.0974,-2.236 z M 427.14057,1151 c 0,-0.825 0.38674,-2.4 0.85943,-3.5 0.54172,-1.2606 0.85943,-1.4455 0.85943,-0.5 0,0.825 -0.38674,2.4 -0.85943,3.5 -0.54172,1.2606 -0.85943,1.4455 -0.85943,0.5 z m 567.48297,-3.5387 c -0.96498,-2.5147 -0.68031,-3.1635 0.49853,-1.1363 0.58369,1.0038 0.8506,2.0357 0.59313,2.2931 -0.25747,0.2575 -0.74872,-0.2631 -1.09166,-1.1568 z m 110.45536,-1.0446 c 0.048,-1.165 0.285,-1.4019 0.6042,-0.6042 0.2889,0.7219 0.2534,1.5844 -0.079,1.9167 -0.3323,0.3323 -0.5687,-0.2584 -0.5253,-1.3125 z M 541.03063,1142.5 c 0,-0.55 0.43621,-1.675 0.96937,-2.5 0.53316,-0.825 0.96937,-1.05 0.96937,-0.5 0,0.55 -0.43621,1.675 -0.96937,2.5 -0.53316,0.825 -0.96937,1.05 -0.96937,0.5 z m 450.59291,-3.0387 c -0.96498,-2.5147 -0.68031,-3.1635 0.49853,-1.1363 0.58369,1.0038 0.8506,2.0357 0.59313,2.2931 -0.25747,0.2575 -0.74872,-0.2631 -1.09166,-1.1568 z M 543.03063,1137.5 c 0,-0.55 0.43621,-1.675 0.96937,-2.5 0.53316,-0.825 0.96937,-1.05 0.96937,-0.5 0,0.55 -0.43621,1.675 -0.96937,2.5 -0.53316,0.825 -0.96937,1.05 -0.96937,0.5 z m 555.69667,-10.7273 c -1.4711,-4.4872 -2.508,-8.3253 -2.3042,-8.5291 0.2037,-0.2037 1.5883,3.2866 3.0769,7.7564 1.4886,4.4698 2.5255,8.3079 2.3042,8.5291 -0.2212,0.2213 -1.6059,-3.2691 -3.0769,-7.7564 z M 549.03063,1122.5 c 0,-0.55 0.43621,-1.675 0.96937,-2.5 0.53316,-0.825 0.96937,-1.05 0.96937,-0.5 0,0.55 -0.43621,1.675 -0.96937,2.5 -0.53316,0.825 -0.96937,1.05 -0.96937,0.5 z m 434.59291,-3.0387 c -0.96498,-2.5147 -0.68031,-3.1635 0.49853,-1.1363 0.58369,1.0038 0.8506,2.0357 0.59313,2.2931 -0.25747,0.2575 -0.74872,-0.2631 -1.09166,-1.1568 z M 552.03063,1115.5 c 0,-0.55 0.43621,-1.675 0.96937,-2.5 0.53316,-0.825 0.96937,-1.05 0.96937,-0.5 0,0.55 -0.43621,1.675 -0.96937,2.5 -0.53316,0.825 -0.96937,1.05 -0.96937,0.5 z m 428.59291,-3.0387 c -0.96498,-2.5147 -0.68031,-3.1635 0.49853,-1.1363 0.58369,1.0038 0.8506,2.0357 0.59313,2.2931 -0.25747,0.2575 -0.74872,-0.2631 -1.09166,-1.1568 z M 440.03063,1111.5 c 0,-0.55 0.43621,-1.675 0.96937,-2.5 0.53316,-0.825 0.96937,-1.05 0.96937,-0.5 0,0.55 -0.43621,1.675 -0.96937,2.5 -0.53316,0.825 -0.96937,1.05 -0.96937,0.5 z m 652.08047,-3.6111 c -0.6161,-1.7673 -0.9451,-3.3882 -0.7312,-3.6021 0.2139,-0.2139 0.8929,1.057 1.509,2.8243 0.6161,1.7673 0.9451,3.3882 0.7312,3.6021 -0.2139,0.2139 -0.8929,-1.057 -1.509,-2.8243 z M 555.08383,1108.5 c 0,-0.55 0.86228,-2.575 1.91617,-4.5 1.05389,-1.925 1.91617,-3.05 1.91617,-2.5 0,0.55 -0.86228,2.575 -1.91617,4.5 -1.05389,1.925 -1.91617,3.05 -1.91617,2.5 z m 421.07861,-6.0428 c -1.67549,-3.6773 -1.35583,-4.4618 0.45586,-1.1188 0.84602,1.5611 1.3511,3.0255 1.1224,3.2542 -0.2287,0.2287 -0.93892,-0.7322 -1.57826,-2.1354 z M 443.03063,1103.5 c 0,-0.55 0.43621,-1.675 0.96937,-2.5 0.53316,-0.825 0.96937,-1.05 0.96937,-0.5 0,0.55 -0.43621,1.675 -0.96937,2.5 -0.53316,0.825 -0.96937,1.05 -0.96937,0.5 z m 645.59287,-5.0387 c -0.9649,-2.5147 -0.6803,-3.1635 0.4986,-1.1363 0.5837,1.0038 0.8506,2.0357 0.5931,2.2931 -0.2575,0.2575 -0.7487,-0.2631 -1.0917,-1.1568 z m -643.59287,0.039 c 0,-0.55 0.43621,-1.675 0.96937,-2.5 0.53316,-0.825 0.96937,-1.05 0.96937,-0.5 0,0.55 -0.43621,1.675 -0.96937,2.5 -0.53316,0.825 -0.96937,1.05 -0.96937,0.5 z m 641.59287,-5.0387 c -0.9649,-2.5147 -0.6803,-3.1635 0.4986,-1.1363 0.5837,1.0038 0.8506,2.0357 0.5931,2.2931 -0.2575,0.2575 -0.7487,-0.2631 -1.0917,-1.1568 z m -639.59287,0.039 c 0,-0.55 0.43621,-1.675 0.96937,-2.5 0.53316,-0.825 0.96937,-1.05 0.96937,-0.5 0,0.55 -0.43621,1.675 -0.96937,2.5 -0.53316,0.825 -0.96937,1.05 -0.96937,0.5 z M 562,1093.6445 c 0,-1.0875 7.96549,-16.6445 8.52232,-16.6445 0.44767,0 -7.20132,15.899 -8.13856,16.9167 -0.21107,0.2291 -0.38376,0.1066 -0.38376,-0.2722 z m 405.21152,-10.1821 c -2.30832,-4.6543 -3.98024,-8.4624 -3.71539,-8.4624 0.66628,0 8.71568,16.1215 8.27129,16.5659 -0.19743,0.1974 -2.24759,-3.4491 -4.5559,-8.1035 z m 117.41198,4.9989 c -0.9649,-2.5147 -0.6803,-3.1635 0.4986,-1.1363 0.5837,1.0038 0.8506,2.0357 0.5931,2.2931 -0.2575,0.2575 -0.7487,-0.2631 -1.0917,-1.1568 z M 451.03063,1083.5 c 0,-0.55 0.43621,-1.675 0.96937,-2.5 0.53316,-0.825 0.96937,-1.05 0.96937,-0.5 0,0.55 -0.43621,1.675 -0.96937,2.5 -0.53316,0.825 -0.96937,1.05 -0.96937,0.5 z m 629.59287,-5.0387 c -0.9649,-2.5147 -0.6803,-3.1635 0.4986,-1.1363 0.5837,1.0038 0.8506,2.0357 0.5931,2.2931 -0.2575,0.2575 -0.7487,-0.2631 -1.0917,-1.1568 z m -627.59287,0.039 c 0,-0.55 0.43621,-1.675 0.96937,-2.5 0.53316,-0.825 0.96937,-1.05 0.96937,-0.5 0,0.55 -0.43621,1.675 -0.96937,2.5 -0.53316,0.825 -0.96937,1.05 -0.96937,0.5 z m 625.59287,-5.0387 c -0.9649,-2.5147 -0.6803,-3.1635 0.4986,-1.1363 0.5837,1.0038 0.8506,2.0357 0.5931,2.2931 -0.2575,0.2575 -0.7487,-0.2631 -1.0917,-1.1568 z M 456.03063,1071.5 c 0,-0.55 0.43621,-1.675 0.96937,-2.5 0.53316,-0.825 0.96937,-1.05 0.96937,-0.5 0,0.55 -0.43621,1.675 -0.96937,2.5 -0.53316,0.825 -0.96937,1.05 -0.96937,0.5 z M 575,1068 c 1.12236,-2.2 2.26565,-4 2.54065,-4 0.275,0 -0.41829,1.8 -1.54065,4 -1.12236,2.2 -2.26565,4 -2.54065,4 -0.275,0 0.41829,-1.8 1.54065,-4 z m 382.5,-3 c -0.85325,-1.65 -1.32636,-3 -1.05136,-3 0.275,0 1.19811,1.35 2.05136,3 0.85325,1.65 1.32636,3 1.05136,3 -0.275,0 -1.19811,-1.35 -2.05136,-3 z m 118.1235,1.4613 c -0.9649,-2.5147 -0.6803,-3.1635 0.4986,-1.1363 0.5837,1.0038 0.8506,2.0357 0.5931,2.2931 -0.2575,0.2575 -0.7487,-0.2631 -1.0917,-1.1568 z M 459.03063,1064.5 c 0,-0.55 0.43621,-1.675 0.96937,-2.5 0.53316,-0.825 0.96937,-1.05 0.96937,-0.5 0,0.55 -0.43621,1.675 -0.96937,2.5 -0.53316,0.825 -0.96937,1.05 -0.96937,0.5 z M 581,1057 c 0.5887,-1.1 1.29537,-2 1.57037,-2 0.275,0 0.0183,0.9 -0.57037,2 -0.5887,1.1 -1.29537,2 -1.57037,2 -0.275,0 -0.0183,-0.9 0.57037,-2 z m 372,0 c -0.5887,-1.1 -0.84537,-2 -0.57037,-2 0.275,0 0.98167,0.9 1.57037,2 0.5887,1.1 0.84537,2 0.57037,2 -0.275,0 -0.98167,-0.9 -1.57037,-2 z m 118.6235,0.4613 c -0.9649,-2.5147 -0.6803,-3.1635 0.4986,-1.1363 0.5837,1.0038 0.8506,2.0357 0.5931,2.2931 -0.2575,0.2575 -0.7487,-0.2631 -1.0917,-1.1568 z M 463.08383,1055.5 c 0,-0.55 0.86228,-2.575 1.91617,-4.5 1.05389,-1.925 1.91617,-3.05 1.91617,-2.5 0,0.55 -0.86228,2.575 -1.91617,4.5 -1.05389,1.925 -1.91617,3.05 -1.91617,2.5 z M 585,1050 c 0.5887,-1.1 1.29537,-2 1.57037,-2 0.275,0 0.0183,0.9 -0.57037,2 -0.5887,1.1 -1.29537,2 -1.57037,2 -0.275,0 -0.0183,-0.9 0.57037,-2 z m 364,0 c -0.5887,-1.1 -0.84537,-2 -0.57037,-2 0.275,0 0.98167,0.9 1.57037,2 0.5887,1.1 0.84537,2 0.57037,2 -0.275,0 -0.98167,-0.9 -1.57037,-2 z m 116.6792,-5.5465 c -2.3491,-4.9262 -2.0187,-5.7645 0.4373,-1.1091 1.1155,2.1144 1.8512,4.0212 1.635,4.2374 -0.2162,0.2162 -1.1487,-1.1915 -2.0723,-3.1283 z M 588,1045 c 0.5887,-1.1 1.29537,-2 1.57037,-2 0.275,0 0.0183,0.9 -0.57037,2 -0.5887,1.1 -1.29537,2 -1.57037,2 -0.275,0 -0.0183,-0.9 0.57037,-2 z m 358,0 c -0.5887,-1.1 -0.84537,-2 -0.57037,-2 0.275,0 0.98167,0.9 1.57037,2 0.5887,1.1 0.84537,2 0.57037,2 -0.275,0 -0.98167,-0.9 -1.57037,-2 z m -355,-5 c 0.5887,-1.1 1.29537,-2 1.57037,-2 0.275,0 0.0183,0.9 -0.57037,2 -0.5887,1.1 -1.29537,2 -1.57037,2 -0.275,0 -0.0183,-0.9 0.57037,-2 z m -121,0.6524 c 0,-1.0892 12.96204,-26.6524 13.51431,-26.6524 0.4473,0 -12.1845,25.8996 -13.12785,26.9167 -0.21255,0.2291 -0.38646,0.1102 -0.38646,-0.2643 z M 594,1035 c 0.5887,-1.1 1.29537,-2 1.57037,-2 0.275,0 0.0183,0.9 -0.57037,2 -0.5887,1.1 -1.29537,2 -1.57037,2 -0.275,0 -0.0183,-0.9 0.57037,-2 z m 344,-3 c -0.5887,-1.1 -0.84537,-2 -0.57037,-2 0.275,0 0.98167,0.9 1.57037,2 0.5887,1.1 0.84537,2 0.57037,2 -0.275,0 -0.98167,-0.9 -1.57037,-2 z m -339,-5 c 0.5887,-1.1 1.29537,-2 1.57037,-2 0.275,0 0.0183,0.9 -0.57037,2 -0.5887,1.1 -1.29537,2 -1.57037,2 -0.275,0 -0.0183,-0.9 0.57037,-2 z m 334,-3 c -0.5887,-1.1 -0.84537,-2 -0.57037,-2 0.275,0 0.98167,0.9 1.57037,2 0.5887,1.1 0.84537,2 0.57037,2 -0.275,0 -0.98167,-0.9 -1.57037,-2 z m 117.5,-10 c -1.3935,-2.75 -2.3087,-5 -2.0337,-5 0.275,0 1.6402,2.25 3.0337,5 1.3935,2.75 2.3087,5 2.0337,5 -0.275,0 -1.6402,-2.25 -3.0337,-5 z m -440.52981,-3.9443 c 0.57231,-1.0694 1.53482,-2.2498 2.13891,-2.6231 0.6041,-0.3734 0.32492,0.5016 -0.62038,1.9443 -2.00162,3.0548 -3.03812,3.5182 -1.51853,0.6788 z m 310.49265,-5.3057 c -1.54161,-2.3375 -2.16391,-3.7221 -1.38288,-3.0769 1.50184,1.2407 5.33076,7.3269 4.60946,7.3269 -0.23301,0 -1.68497,-1.9125 -3.22658,-4.25 z M 489,1003 c 1.12236,-2.2 2.26565,-4 2.54065,-4 0.275,0 -0.41829,1.8 -1.54065,4 -1.12236,2.2 -2.26565,4 -2.54065,4 -0.275,0 0.41829,-1.8 1.54065,-4 z m 555,-1 c -0.5887,-1.1 -0.8454,-2 -0.5704,-2 0.275,0 0.9817,0.9 1.5704,2 0.5887,1.1 0.8454,2 0.5704,2 -0.275,0 -0.9817,-0.9 -1.5704,-2 z m -427,-2 c 1.1749,-1.65 2.36119,-3 2.63619,-3 0.275,0 -0.46129,1.35 -1.63619,3 -1.1749,1.65 -2.36119,3 -2.63619,3 -0.275,0 0.46129,-1.35 1.63619,-3 z m -123.5,-5 c 0.85325,-1.65 1.77636,-3 2.05136,-3 0.275,0 -0.19811,1.35 -1.05136,3 -0.85325,1.65 -1.77636,3 -2.05136,3 -0.275,0 0.19811,-1.35 1.05136,-3 z m 126.5,0.62244 c 0,-0.20765 0.7875,-0.99515 1.75,-1.75 1.58606,-1.24387 1.62143,-1.2085 0.37756,0.37756 C 620.82119,995.91575 620,996.44548 620,995.62244 Z M 1039,993 c -0.5887,-1.1 -0.8454,-2 -0.5704,-2 0.275,0 0.9817,0.9 1.5704,2 0.5887,1.1 0.8454,2 0.5704,2 -0.275,0 -0.9817,-0.9 -1.5704,-2 z m -413,-5 c 1.74243,-2.2 3.39306,-4 3.66806,-4 0.275,0 -0.92563,1.8 -2.66806,4 -1.74243,2.2 -3.39306,4 -3.66806,4 -0.275,0 0.92563,-1.8 2.66806,-4 z m 283.87244,1.25 c -1.24387,-1.58606 -1.2085,-1.62143 0.37756,-0.37756 0.9625,0.75485 1.75,1.54235 1.75,1.75 0,0.82304 -0.82119,0.29331 -2.12756,-1.37244 z M 1035.5,987 c -0.8532,-1.65 -1.3264,-3 -1.0514,-3 0.275,0 1.1982,1.35 2.0514,3 0.8532,1.65 1.3264,3 1.0514,3 -0.275,0 -1.1982,-1.35 -2.0514,-3 z M 498,987 c 0.5887,-1.1 1.29537,-2 1.57037,-2 0.275,0 0.0183,0.9 -0.57037,2 -0.5887,1.1 -1.29537,2 -1.57037,2 -0.275,0 -0.0183,-0.9 0.57037,-2 z m 3.5,-6 c 0.85325,-1.65 1.77636,-3 2.05136,-3 0.275,0 -0.19811,1.35 -1.05136,3 -0.85325,1.65 -1.77636,3 -2.05136,3 -0.275,0 0.19811,-1.35 1.05136,-3 z m 403.37244,1.25 c -1.24387,-1.58606 -1.2085,-1.62143 0.37756,-0.37756 0.9625,0.75485 1.75,1.54235 1.75,1.75 0,0.82304 -0.82119,0.29331 -2.12756,-1.37244 z M 631.5,981 c 0.99549,-1.1 2.03498,-2 2.30998,-2 0.275,0 -0.31449,0.9 -1.30998,2 -0.99549,1.1 -2.03498,2 -2.30998,2 -0.275,0 0.31449,-0.9 1.30998,-2 z m 400.5,0 c -0.5887,-1.1 -0.8454,-2 -0.5704,-2 0.275,0 0.9817,0.9 1.5704,2 0.5887,1.1 0.8454,2 0.5704,2 -0.275,0 -0.9817,-0.9 -1.5704,-2 z m -396.5,-5 c 0.99549,-1.1 2.03498,-2 2.30998,-2 0.275,0 -0.31449,0.9 -1.30998,2 -0.99549,1.1 -2.03498,2 -2.30998,2 -0.275,0 0.31449,-0.9 1.30998,-2 z m 393.5,0 c -0.5887,-1.1 -0.8454,-2 -0.5704,-2 0.275,0 0.9817,0.9 1.5704,2 0.5887,1.1 0.8454,2 0.5704,2 -0.275,0 -0.9817,-0.9 -1.5704,-2 z m -524.12844,-0.5 c 0.54004,-1.1 1.71469,-2.9 2.61033,-4 l 1.62844,-2 -0.98189,2 c -0.54004,1.1 -1.71469,2.9 -2.61033,4 l -1.62844,2 z M 898,973 c -1.74243,-2.2 -2.94306,-4 -2.66806,-4 0.275,0 1.92563,1.8 3.66806,4 1.74243,2.2 2.94306,4 2.66806,4 -0.275,0 -1.92563,-1.8 -3.66806,-4 z m -258,-2.5 c 1.29175,-1.375 2.57363,-2.5 2.84863,-2.5 0.275,0 -0.55688,1.125 -1.84863,2.5 -1.29175,1.375 -2.57363,2.5 -2.84863,2.5 -0.275,0 0.55688,-1.125 1.84863,-2.5 z m 384,-2.5 c -0.5887,-1.1 -0.8454,-2 -0.5704,-2 0.275,0 0.9817,0.9 1.5704,2 0.5887,1.1 0.8454,2 0.5704,2 -0.275,0 -0.9817,-0.9 -1.5704,-2 z m -514,-1 c 0.5887,-1.1 1.29537,-2 1.57037,-2 0.275,0 0.0183,0.9 -0.57037,2 -0.5887,1.1 -1.29537,2 -1.57037,2 -0.275,0 -0.0183,-0.9 0.57037,-2 z m 382.40499,-1.25 -1.90499,-2.25 2.25,1.90499 c 2.11444,1.79022 2.70524,2.59501 1.90499,2.59501 -0.18976,0 -1.20226,-1.0125 -2.25,-2.25 z M 645,964.5 c 1.29175,-1.375 2.57363,-2.5 2.84863,-2.5 0.275,0 -0.55688,1.125 -1.84863,2.5 -1.29175,1.375 -2.57363,2.5 -2.84863,2.5 -0.275,0 0.55688,-1.125 1.84863,-2.5 z m 242.92431,-4.25 -2.42431,-2.75 2.75,2.42431 c 1.5125,1.33338 2.75,2.57088 2.75,2.75 0,0.78428 -0.8098,0.14598 -3.07569,-2.42431 z m 129.87769,-2 c -5.3543,-8.14951 -6.0146,-9.25 -5.5499,-9.25 0.4371,0 1.8494,2.01232 7.1938,10.25 0.9813,1.5125 1.5672,2.75 1.302,2.75 -0.2652,0 -1.5908,-1.6875 -2.9459,-3.75 z m -502.27845,0.18395 c 0.92969,-1.68633 2.57975,-4.16133 3.6668,-5.5 l 1.97645,-2.43395 -1.69035,3.06605 c -0.92969,1.68633 -2.57975,4.16133 -3.6668,5.5 L 513.8332,961.5 Z M 648,960.68709 c 0,-0.1721 1.4625,-1.6346 3.25,-3.25 l 3.25,-2.93709 -2.93709,3.25 C 648.82513,960.77946 648,961.45965 648,960.68709 Z M 881.94617,953.25 878.5,949.5 l 3.75,3.44617 c 3.49042,3.20761 4.20979,4.05383 3.44617,4.05383 -0.16711,0 -1.85461,-1.6875 -3.75,-3.75 z M 657,950.5 c 1.86578,-1.925 3.61733,-3.5 3.89233,-3.5 0.275,0 -1.02655,1.575 -2.89233,3.5 -1.86578,1.925 -3.61733,3.5 -3.89233,3.5 -0.275,0 1.02655,-1.575 2.89233,-3.5 z m 215.96584,-7.25 -5.46584,-5.75 5.75,5.46584 c 3.1625,3.00621 5.75,5.59371 5.75,5.75 0,0.74225 -0.95622,-0.12391 -6.03416,-5.46584 z M 665.5,941 c 2.14824,-2.2 4.1309,-4 4.4059,-4 0.275,0 -1.25766,1.8 -3.4059,4 -2.14824,2.2 -4.1309,4 -4.4059,4 -0.275,0 1.25766,-1.8 3.4059,-4 z m 340.5,-0.5 c -1.7028,-2.475 -2.8711,-4.5 -2.5961,-4.5 0.275,0 1.8933,2.025 3.5961,4.5 1.7028,2.475 2.8711,4.5 2.5961,4.5 -0.275,0 -1.8933,-2.025 -3.5961,-4.5 z M 844.99128,914.25 823.5,892.5 845.25,913.99128 C 865.45963,933.96051 867.45117,936 866.74128,936 c -0.1423,0 -9.9298,-9.7875 -21.75,-21.75 z M 676.5,929 c 3.26557,-3.3 6.16239,-6 6.43739,-6 0.275,0 -2.17182,2.7 -5.43739,6 -3.26557,3.3 -6.16239,6 -6.43739,6 -0.275,0 2.17182,-2.7 5.43739,-6 z m 322.37244,1.25 c -1.24387,-1.58606 -1.2085,-1.62143 0.37756,-0.37756 0.9625,0.75485 1.75,1.54235 1.75,1.75 0,0.82304 -0.8212,0.29331 -2.12756,-1.37244 z M 537,926 c 1.1749,-1.65 2.36119,-3 2.63619,-3 0.275,0 -0.46129,1.35 -1.63619,3 -1.1749,1.65 -2.36119,3 -2.63619,3 -0.275,0 0.46129,-1.35 1.63619,-3 z m 456.87244,-2.75 c -1.24387,-1.58606 -1.2085,-1.62143 0.37756,-0.37756 1.66575,1.30637 2.19548,2.12756 1.37244,2.12756 -0.20765,0 -0.99515,-0.7875 -1.75,-1.75 z M 699,905.5 c 8.51169,-8.525 15.7008,-15.5 15.9758,-15.5 0.275,0 -6.46411,6.975 -14.9758,15.5 -8.51169,8.525 -15.7008,15.5 -15.9758,15.5 -0.275,0 6.46411,-6.975 14.9758,-15.5 z m 291.87244,13.75 c -1.24387,-1.58606 -1.2085,-1.62143 0.37756,-0.37756 1.66575,1.30637 2.19548,2.12756 1.37244,2.12756 -0.20765,0 -0.99515,-0.7875 -1.75,-1.75 z M 542,918.62244 c 0,-0.20765 0.7875,-0.99515 1.75,-1.75 1.58606,-1.24387 1.62143,-1.2085 0.37756,0.37756 C 542.82119,918.91575 542,919.44548 542,918.62244 Z M 987.87244,915.25 c -1.24387,-1.58606 -1.2085,-1.62143 0.37756,-0.37756 0.9625,0.75485 1.75,1.54235 1.75,1.75 0,0.82304 -0.82119,0.29331 -2.12756,-1.37244 z m -3,-4 c -1.24387,-1.58606 -1.2085,-1.62143 0.37756,-0.37756 0.9625,0.75485 1.75,1.54235 1.75,1.75 0,0.82304 -0.82119,0.29331 -2.12756,-1.37244 z M 547,911.62244 c 0,-0.20765 0.7875,-0.99515 1.75,-1.75 1.58606,-1.24387 1.62143,-1.2085 0.37756,0.37756 C 547.82119,911.91575 547,912.44548 547,911.62244 Z M 981.87244,907.25 c -1.24387,-1.58606 -1.2085,-1.62143 0.37756,-0.37756 1.66575,1.30637 2.19548,2.12756 1.37244,2.12756 -0.20765,0 -0.99515,-0.7875 -1.75,-1.75 z M 550,907.62244 c 0,-0.20765 0.7875,-0.99515 1.75,-1.75 1.58606,-1.24387 1.62143,-1.2085 0.37756,0.37756 C 550.82119,907.91575 550,908.44548 550,907.62244 Z M 978.40499,902.75 976.5,900.5 l 2.25,1.90499 c 2.11444,1.79022 2.70524,2.59501 1.90499,2.59501 -0.18976,0 -1.20226,-1.0125 -2.25,-2.25 z M 553,903.62244 c 0,-0.20765 0.7875,-0.99515 1.75,-1.75 1.58606,-1.24387 1.62143,-1.2085 0.37756,0.37756 C 553.82119,903.91575 553,904.44548 553,903.62244 Z M 559,896 c 1.74243,-2.2 3.39306,-4 3.66806,-4 0.275,0 -0.92563,1.8 -2.66806,4 -1.74243,2.2 -3.39306,4 -3.66806,4 -0.275,0 0.92563,-1.8 2.66806,-4 z m 413.38684,-0.7034 c -2.11975,-2.58688 -3.33183,-4.38063 -2.6935,-3.98613 1.36013,0.84061 7.69304,8.68953 7.01115,8.68953 -0.25496,0 -2.1979,-2.11653 -4.31765,-4.7034 z M 817,887.5 c -2.42903,-2.475 -4.19142,-4.5 -3.91642,-4.5 0.275,0 2.48739,2.025 4.91642,4.5 2.42903,2.475 4.19142,4.5 3.91642,4.5 -0.275,0 -2.48739,-2.025 -4.91642,-4.5 z M 564.5,889 c 0.99549,-1.1 2.03498,-2 2.30998,-2 0.275,0 -0.31449,0.9 -1.30998,2 -0.99549,1.1 -2.03498,2 -2.30998,2 -0.275,0 0.31449,-0.9 1.30998,-2 z m 401.90499,-1.25 -1.90499,-2.25 2.25,1.90499 c 1.2375,1.04774 2.25,2.06024 2.25,2.25 0,0.80025 -0.80479,0.20945 -2.59501,-1.90499 z M 723,882.5 c 3.54322,-3.575 6.66722,-6.5 6.94222,-6.5 0.275,0 -2.399,2.925 -5.94222,6.5 -3.54322,3.575 -6.66722,6.5 -6.94222,6.5 -0.275,0 2.399,-2.925 5.94222,-6.5 z M 568.5,884 c 0.99549,-1.1 2.03498,-2 2.30998,-2 0.275,0 -0.31449,0.9 -1.30998,2 -0.99549,1.1 -2.03498,2 -2.30998,2 -0.275,0 0.31449,-0.9 1.30998,-2 z m 393.42431,-1.75 -2.42431,-2.75 2.75,2.42431 c 1.5125,1.33338 2.75,2.57088 2.75,2.75 0,0.78428 -0.8098,0.14598 -3.07569,-2.42431 z m -153,-2 -2.42431,-2.75 2.75,2.42431 c 1.5125,1.33338 2.75,2.57088 2.75,2.75 0,0.78428 -0.8098,0.14598 -3.07569,-2.42431 z M 573,878.5 c 1.29175,-1.375 2.57363,-2.5 2.84863,-2.5 0.275,0 -0.55688,1.125 -1.84863,2.5 -1.29175,1.375 -2.57363,2.5 -2.84863,2.5 -0.275,0 0.55688,-1.125 1.84863,-2.5 z m 383.43709,-2.75 -2.93709,-3.25 3.25,2.93709 c 3.02946,2.73778 3.70965,3.56291 2.93709,3.56291 -0.1721,0 -1.6346,-1.4625 -3.25,-3.25 z m -153.51278,-0.5 -2.42431,-2.75 2.75,2.42431 c 1.5125,1.33338 2.75,2.57088 2.75,2.75 0,0.78428 -0.8098,0.14598 -3.07569,-2.42431 z M 734.5,872 c 2.14824,-2.2 4.1309,-4 4.4059,-4 0.275,0 -1.25766,1.8 -3.4059,4 -2.14824,2.2 -4.1309,4 -4.4059,4 -0.275,0 1.25766,-1.8 3.4059,-4 z M 576,874.68709 c 0,-0.1721 1.4625,-1.6346 3.25,-3.25 l 3.25,-2.93709 -2.93709,3.25 C 576.82513,874.77946 576,875.45965 576,874.68709 Z m 218.71241,-6.47144 C 792.12058,865.58426 790,862.97253 790,862.41182 c 0,-0.56072 1.6875,-2.57026 3.75,-4.46565 l 3.75,-3.44617 -3.25,3.54761 c -1.7875,1.95118 -3.25,3.96072 -3.25,4.46565 0,0.50492 2.12058,3.071 4.71241,5.70239 2.59182,2.63139 4.48741,4.78435 4.21241,4.78435 -0.275,0 -2.62059,-2.15296 -5.21241,-4.78435 z M 949.94617,868.25 946.5,864.5 l 3.75,3.44617 c 2.0625,1.89539 3.75,3.58289 3.75,3.75 0,0.76362 -0.84622,0.0442 -4.05383,-3.44617 z M 582,867.68709 c 0,-0.1721 1.4625,-1.6346 3.25,-3.25 l 3.25,-2.93709 -2.93709,3.25 C 582.82513,867.77946 582,868.45965 582,867.68709 Z m 158,0 c 0,-0.1721 1.4625,-1.6346 3.25,-3.25 l 3.25,-2.93709 -2.93709,3.25 C 740.82513,867.77946 740,868.45965 740,867.68709 Z M 942,859.5 c -2.42903,-2.475 -4.19142,-4.5 -3.91642,-4.5 0.275,0 2.48739,2.025 4.91642,4.5 2.42903,2.475 4.19142,4.5 3.91642,4.5 -0.275,0 -2.48739,-2.025 -4.91642,-4.5 z m -195,2.18709 c 0,-0.1721 1.4625,-1.6346 3.25,-3.25 l 3.25,-2.93709 -2.93709,3.25 C 747.82513,861.77946 747,862.45965 747,861.68709 Z M 591.95821,856.75 c 2.45201,-2.6125 4.58951,-4.75 4.75,-4.75 0.75088,0 -0.043,0.89783 -4.45821,5.04179 L 587.5,861.5 Z M 755.5,854 c 0.99549,-1.1 2.03498,-2 2.30998,-2 0.275,0 -0.31449,0.9 -1.30998,2 -0.99549,1.1 -2.03498,2 -2.30998,2 -0.275,0 0.31449,-0.9 1.30998,-2 z m 42.81047,0.30666 C 799.15108,852.94653 807,846.61362 807,847.29551 c 0,0.25496 -2.11653,2.1979 -4.7034,4.31765 -2.58688,2.11975 -4.38063,3.33183 -3.98613,2.6935 z M 928.47915,844.75 919.5,835.5 l 9.25,8.97915 c 8.59119,8.33963 9.7052,9.52085 8.97915,9.52085 -0.14897,0 -4.31147,-4.1625 -9.25,-9.25 z M 761,849.5 c 1.29175,-1.375 2.57363,-2.5 2.84863,-2.5 0.275,0 -0.55688,1.125 -1.84863,2.5 -1.29175,1.375 -2.57363,2.5 -2.84863,2.5 -0.275,0 0.55688,-1.125 1.84863,-2.5 z m -149.25474,-14 c 8.31454,-8.8 21.99606,-22.75 30.40339,-31 8.40997,-8.2526 4.31367,-3.75433 -9.10641,10 -13.41585,13.75 -27.09737,27.7 -30.40339,31 -3.30602,3.3 0.79187,-1.2 9.10641,-10 z M 765,846.68624 c 0,-0.275 2.25,-2.38381 5,-4.68624 2.75,-2.30243 5,-3.96124 5,-3.68624 0,0.275 -2.25,2.38381 -5,4.68624 -2.75,2.30243 -5,3.96124 -5,3.68624 z m 46.20566,-2.93948 C 815.95103,839.41579 827,830.72576 827,831.32449 c 0,0.25145 -4.3875,3.91029 -9.75,8.13076 -5.3625,4.22046 -8.08245,6.15164 -6.04434,4.29151 z M 778,835.5 c 1.29175,-1.375 2.57363,-2.5 2.84863,-2.5 0.275,0 -0.55688,1.125 -1.84863,2.5 -1.29175,1.375 -2.57363,2.5 -2.84863,2.5 -0.275,0 0.55688,-1.125 1.84863,-2.5 z m 4,-2.81376 c 0,-0.275 2.25,-2.38381 5,-4.68624 2.75,-2.30243 5,-3.96124 5,-3.68624 0,0.275 -2.25,2.38381 -5,4.68624 -2.75,2.30243 -5,3.96124 -5,3.68624 z m 46,-2.0638 c 0,-0.20765 0.7875,-0.99515 1.75,-1.75 1.58606,-1.24387 1.62143,-1.2085 0.37756,0.37756 C 828.82119,830.91575 828,831.44548 828,830.62244 Z M 913.40499,828.75 911.5,826.5 l 2.25,1.90499 c 1.2375,1.04774 2.25,2.06024 2.25,2.25 0,0.80025 -0.80479,0.20945 -2.59501,-1.90499 z M 833.5,826 c 0.99549,-1.1 2.03498,-2 2.30998,-2 0.275,0 -0.31449,0.9 -1.30998,2 -0.99549,1.1 -2.03498,2 -2.30998,2 -0.275,0 0.31449,-0.9 1.30998,-2 z M 795,821.5 c 1.29175,-1.375 2.57363,-2.5 2.84863,-2.5 0.275,0 -0.55688,1.125 -1.84863,2.5 -1.29175,1.375 -2.57363,2.5 -2.84863,2.5 -0.275,0 0.55688,-1.125 1.84863,-2.5 z m 42,2.12244 c 0,-0.20765 0.7875,-0.99515 1.75,-1.75 1.58606,-1.24387 1.62143,-1.2085 0.37756,0.37756 C 837.82119,823.91575 837,824.44548 837,823.62244 Z M 897.97792,814.25 889.5,805.5 l 8.75,8.47792 c 8.12674,7.87404 9.20553,9.02208 8.47792,9.02208 -0.14964,0 -4.08714,-3.9375 -8.75,-8.75 z M 842.5,819 c 0.99549,-1.1 2.03498,-2 2.30998,-2 0.275,0 -0.31449,0.9 -1.30998,2 -0.99549,1.1 -2.03498,2 -2.30998,2 -0.275,0 0.31449,-0.9 1.30998,-2 z M 801,816.5 c 1.29175,-1.375 2.57363,-2.5 2.84863,-2.5 0.275,0 -0.55688,1.125 -1.84863,2.5 -1.29175,1.375 -2.57363,2.5 -2.84863,2.5 -0.275,0 0.55688,-1.125 1.84863,-2.5 z m 45,0.12244 c 0,-0.20765 0.7875,-0.99515 1.75,-1.75 1.58606,-1.24387 1.62143,-1.2085 0.37756,0.37756 C 846.82119,816.91575 846,817.44548 846,816.62244 Z m -41,-2.9362 c 0,-0.275 2.25,-2.38381 5,-4.68624 2.75,-2.30243 5,-3.96124 5,-3.68624 0,0.275 -2.25,2.38381 -5,4.68624 -2.75,2.30243 -5,3.96124 -5,3.68624 z m 45,-0.0638 c 0,-0.20765 0.7875,-0.99515 1.75,-1.75 1.58606,-1.24387 1.62143,-1.2085 0.37756,0.37756 C 850.82119,813.91575 850,814.44548 850,813.62244 Z m 4,-3 c 0,-0.20765 0.7875,-0.99515 1.75,-1.75 1.58606,-1.24387 1.62143,-1.2085 0.37756,0.37756 C 854.82119,810.91575 854,811.44548 854,810.62244 Z m 4,-3 c 0,-0.20765 0.7875,-0.99515 1.75,-1.75 1.58606,-1.24387 1.62143,-1.2085 0.37756,0.37756 C 858.82119,807.91575 858,808.44548 858,807.62244 Z M 818,802.5 c 1.29175,-1.375 2.57363,-2.5 2.84863,-2.5 0.275,0 -0.55688,1.125 -1.84863,2.5 -1.29175,1.375 -2.57363,2.5 -2.84863,2.5 -0.275,0 0.55688,-1.125 1.84863,-2.5 z m 66.92431,-0.25 -2.42431,-2.75 2.75,2.42431 c 1.5125,1.33338 2.75,2.57088 2.75,2.75 0,0.78428 -0.8098,0.14598 -3.07569,-2.42431 z M 865,802.62244 c 0,-0.20765 0.7875,-0.99515 1.75,-1.75 1.58606,-1.24387 1.62143,-1.2085 0.37756,0.37756 C 865.82119,802.91575 865,803.44548 865,802.62244 Z M 824,797.5 c 1.29175,-1.375 2.57363,-2.5 2.84863,-2.5 0.275,0 -0.55688,1.125 -1.84863,2.5 -1.29175,1.375 -2.57363,2.5 -2.84863,2.5 -0.275,0 0.55688,-1.125 1.84863,-2.5 z m 55.87244,0.75 c -1.24387,-1.58606 -1.2085,-1.62143 0.37756,-0.37756 1.66575,1.30637 2.19548,2.12756 1.37244,2.12756 -0.20765,0 -0.99515,-0.7875 -1.75,-1.75 z M 876,796 c -0.90129,-0.58246 -1.02463,-0.97549 -0.30902,-0.98469 0.65504,-0.008 1.4691,0.43469 1.80902,0.98469 0.7673,1.24153 0.42112,1.24153 -1.5,0 z m -46,-3.5 c 1.29175,-1.375 2.57363,-2.5 2.84863,-2.5 0.275,0 -0.55688,1.125 -1.84863,2.5 -1.29175,1.375 -2.57363,2.5 -2.84863,2.5 -0.275,0 0.55688,-1.125 1.84863,-2.5 z m 4,-2.81291 c 0,-0.1721 1.4625,-1.6346 3.25,-3.25 l 3.25,-2.93709 -2.93709,3.25 C 834.82513,789.77946 834,790.45965 834,789.68709 Z M 665,782.5 c 3.54322,-3.575 6.66722,-6.5 6.94222,-6.5 0.275,0 -2.399,2.925 -5.94222,6.5 -3.54322,3.575 -6.66722,6.5 -6.94222,6.5 -0.275,0 2.399,-2.925 5.94222,-6.5 z m 176,1.18709 c 0,-0.1721 1.4625,-1.6346 3.25,-3.25 l 3.25,-2.93709 -2.93709,3.25 C 841.82513,783.77946 841,784.45965 841,783.68709 Z M 851,774.5 c 1.86578,-1.925 3.61733,-3.5 3.89233,-3.5 0.275,0 -1.02655,1.575 -2.89233,3.5 -1.86578,1.925 -3.61733,3.5 -3.89233,3.5 -0.275,0 1.02655,-1.575 2.89233,-3.5 z M 676.95821,771.75 C 681.10217,767.33481 682,766.54091 682,767.29179 c 0,0.16049 -2.1375,2.29799 -4.75,4.75 L 672.5,776.5 Z M 859.5,767 c 2.14824,-2.2 4.1309,-4 4.4059,-4 0.275,0 -1.25766,1.8 -3.4059,4 -2.14824,2.2 -4.1309,4 -4.4059,4 -0.275,0 1.25766,-1.8 3.4059,-4 z m -173,-4 c 2.14824,-2.2 4.1309,-4 4.4059,-4 0.275,0 -1.25766,1.8 -3.4059,4 -2.14824,2.2 -4.1309,4 -4.4059,4 -0.275,0 1.25766,-1.8 3.4059,-4 z m 182.45821,-4.25 c 2.45201,-2.6125 4.58951,-4.75 4.75,-4.75 0.75088,0 -0.043,0.89783 -4.45821,5.04179 L 864.5,763.5 Z M 692,758.68709 c 0,-0.1721 1.4625,-1.6346 3.25,-3.25 l 3.25,-2.93709 -2.93709,3.25 C 692.82513,758.77946 692,759.45965 692,758.68709 Z M 880.5,748 c 3.26557,-3.3 6.16239,-6 6.43739,-6 0.275,0 -2.17182,2.7 -5.43739,6 -3.26557,3.3 -6.16239,6 -6.43739,6 -0.275,0 2.17182,-2.7 5.43739,-6 z m -220.19424,2.40226 -2.80576,-2.59774 2.88486,2.09774 c 3.76737,2.73947 4.42384,2.66846 9.1373,-0.98841 l 3.97784,-3.08615 -3.91661,3.58615 C 667.42925,751.38623 665.09185,753 664.38915,753 c -0.70269,0 -2.54022,-1.16898 -4.08339,-2.59774 z M 699,752.68709 c 0,-0.1721 1.4625,-1.6346 3.25,-3.25 l 3.25,-2.93709 -2.93709,3.25 C 699.82513,752.77946 699,753.45965 699,752.68709 Z m -48.5,-10.27018 -6,-5.57949 6.25,5.23126 c 5.55767,4.65177 6.85686,5.9357 6,5.92951 -0.1375,-9.9e-4 -2.95,-2.51257 -6.25,-5.58128 z M 708,744.5 c 1.29175,-1.375 2.57363,-2.5 2.84863,-2.5 0.275,0 -0.55688,1.125 -1.84863,2.5 -1.29175,1.375 -2.57363,2.5 -2.84863,2.5 -0.275,0 0.55688,-1.125 1.84863,-2.5 z m -32,-1 c 1.29175,-1.375 2.57363,-2.5 2.84863,-2.5 0.275,0 -0.55688,1.125 -1.84863,2.5 -1.29175,1.375 -2.57363,2.5 -2.84863,2.5 -0.275,0 0.55688,-1.125 1.84863,-2.5 z m 38,-4 c 1.29175,-1.375 2.57363,-2.5 2.84863,-2.5 0.275,0 -0.55688,1.125 -1.84863,2.5 -1.29175,1.375 -2.57363,2.5 -2.84863,2.5 -0.275,0 0.55688,-1.125 1.84863,-2.5 z m 194,-18 c 11.26494,-11.275 20.7067,-20.5 20.9817,-20.5 0.275,0 -8.71676,9.225 -19.9817,20.5 -11.26494,11.275 -20.7067,20.5 -20.9817,20.5 -0.275,0 8.71676,-9.225 19.9817,-20.5 z m -226,17 c 1.29175,-1.375 2.57363,-2.5 2.84863,-2.5 0.275,0 -0.55688,1.125 -1.84863,2.5 -1.29175,1.375 -2.57363,2.5 -2.84863,2.5 -0.275,0 0.55688,-1.125 1.84863,-2.5 z m -43.53759,-6.75 -4.96241,-5.25 5.25,4.96241 c 4.87839,4.61116 5.7086,5.53759 4.96241,5.53759 -0.15818,0 -2.52068,-2.3625 -5.25,-5.25 z M 718,736.68624 c 0,-0.275 2.25,-2.38381 5,-4.68624 2.75,-2.30243 5,-3.96124 5,-3.68624 0,0.275 -2.25,2.38381 -5,4.68624 -2.75,2.30243 -5,3.96124 -5,3.68624 z m -32,-0.99915 c 0,-0.1721 1.4625,-1.6346 3.25,-3.25 l 3.25,-2.93709 -2.93709,3.25 C 686.82513,735.77946 686,736.45965 686,735.68709 Z M 695,727.5 c 1.29175,-1.375 2.57363,-2.5 2.84863,-2.5 0.275,0 -0.55688,1.125 -1.84863,2.5 -1.29175,1.375 -2.57363,2.5 -2.84863,2.5 -0.275,0 0.55688,-1.125 1.84863,-2.5 z m 35.5,-1.5 c 0.99549,-1.1 2.03498,-2 2.30998,-2 0.275,0 -0.31449,0.9 -1.30998,2 -0.99549,1.1 -2.03498,2 -2.30998,2 -0.275,0 0.31449,-0.9 1.30998,-2 z m -120,-21 c -11.54018,-11.55 -20.75714,-21 -20.48214,-21 0.275,0 9.94196,9.45 21.48214,21 11.54018,11.55 20.75714,21 20.48214,21 -0.275,0 -9.94196,-9.45 -21.48214,-21 z m 88.5,19.68709 c 0,-0.1721 1.4625,-1.6346 3.25,-3.25 l 3.25,-2.93709 -2.93709,3.25 C 699.82513,724.77946 699,725.45965 699,724.68709 Z M 735.5,722 c 0.99549,-1.1 2.03498,-2 2.30998,-2 0.275,0 -0.31449,0.9 -1.30998,2 -0.99549,1.1 -2.03498,2 -2.30998,2 -0.275,0 0.31449,-0.9 1.30998,-2 z m 5,-4 c 0.99549,-1.1 2.03498,-2 2.30998,-2 0.275,0 -0.31449,0.9 -1.30998,2 -0.99549,1.1 -2.03498,2 -2.30998,2 -0.275,0 0.31449,-0.9 1.30998,-2 z m -34.5,0.68709 c 0,-0.1721 1.4625,-1.6346 3.25,-3.25 l 3.25,-2.93709 -2.93709,3.25 C 706.82513,718.77946 706,719.45965 706,718.68709 Z M 745.5,714 c 0.99549,-1.1 2.03498,-2 2.30998,-2 0.275,0 -0.31449,0.9 -1.30998,2 -0.99549,1.1 -2.03498,2 -2.30998,2 -0.275,0 0.31449,-0.9 1.30998,-2 z M 713,712.68709 c 0,-0.1721 1.4625,-1.6346 3.25,-3.25 l 3.25,-2.93709 -2.93709,3.25 C 713.82513,712.77946 713,713.45965 713,712.68709 Z m 36.24307,-1.27137 c 0.34756,-0.56236 3.44755,-3.23456 6.88886,-5.9382 3.44131,-2.70365 5.97256,-4.45561 5.625,-3.89324 -0.34756,0.56236 -3.44755,3.23456 -6.88886,5.9382 -3.44131,2.70365 -5.97256,4.45561 -5.625,3.89324 z M 723,703.5 c 1.86578,-1.925 3.61733,-3.5 3.89233,-3.5 0.275,0 -1.02655,1.575 -2.89233,3.5 -1.86578,1.925 -3.61733,3.5 -3.89233,3.5 -0.275,0 1.02655,-1.575 2.89233,-3.5 z m 41.5,-4.5 c 0.99549,-1.1 2.03498,-2 2.30998,-2 0.275,0 -0.31449,0.9 -1.30998,2 -0.99549,1.1 -2.03498,2 -2.30998,2 -0.275,0 0.31449,-0.9 1.30998,-2 z m -33,-3 c 2.14824,-2.2 4.1309,-4 4.4059,-4 0.275,0 -1.25766,1.8 -3.4059,4 -2.14824,2.2 -4.1309,4 -4.4059,4 -0.275,0 1.25766,-1.8 3.4059,-4 z m 203,-2 c 3.26557,-3.3 6.16239,-6 6.43739,-6 0.275,0 -2.17182,2.7 -5.43739,6 -3.26557,3.3 -6.16239,6 -6.43739,6 -0.275,0 2.17182,-2.7 5.43739,-6 z m -165,1 c 0.99549,-1.1 2.03498,-2 2.30998,-2 0.275,0 -0.31449,0.9 -1.30998,2 -0.99549,1.1 -2.03498,2 -2.30998,2 -0.275,0 0.31449,-0.9 1.30998,-2 z m 5,-4 c 0.99549,-1.1 2.03498,-2 2.30998,-2 0.275,0 -0.31449,0.9 -1.30998,2 -0.99549,1.1 -2.03498,2 -2.30998,2 -0.275,0 0.31449,-0.9 1.30998,-2 z m -33.02665,-3.74786 4.94726,-5.24787 -4.44571,-4.75213 -4.44571,-4.75214 4.97287,4.75063 4.97288,4.75062 -5.47443,5.24938 -5.47442,5.24937 z M 780,686.5 c 1.29175,-1.375 2.57363,-2.5 2.84863,-2.5 0.275,0 -0.55688,1.125 -1.84863,2.5 -1.29175,1.375 -2.57363,2.5 -2.84863,2.5 -0.275,0 0.55688,-1.125 1.84863,-2.5 z m 164.95821,-3.75 c 2.45201,-2.6125 4.58951,-4.75 4.75,-4.75 0.75088,0 -0.043,0.89783 -4.45821,5.04179 L 940.5,687.5 Z M 785.5,682 c 0.99549,-1.1 2.03498,-2 2.30998,-2 0.275,0 -0.31449,0.9 -1.30998,2 -0.99549,1.1 -2.03498,2 -2.30998,2 -0.275,0 0.31449,-0.9 1.30998,-2 z M 585.45295,678.75 581.5,674.5 l 4.25,3.95295 c 2.3375,2.17412 4.25,4.08662 4.25,4.25 0,0.75658 -0.87085,-4.9e-4 -4.54705,-3.95295 z M 791,677.5 c 1.29175,-1.375 2.57363,-2.5 2.84863,-2.5 0.275,0 -0.55688,1.125 -1.84863,2.5 -1.29175,1.375 -2.57363,2.5 -2.84863,2.5 -0.275,0 0.55688,-1.125 1.84863,-2.5 z m 164.37212,-6.7959 c 3.22967,-3.68725 6.08669,-6.7041 6.34895,-6.7041 0.66201,0 -9.6613,11.84721 -11.07399,12.7087 -0.6309,0.38472 1.49537,-2.31734 4.72504,-6.0046 z M 797,672.5 c 1.29175,-1.375 2.57363,-2.5 2.84863,-2.5 0.275,0 -0.55688,1.125 -1.84863,2.5 -1.29175,1.375 -2.57363,2.5 -2.84863,2.5 -0.275,0 0.55688,-1.125 1.84863,-2.5 z M 578.43709,670.75 575.5,667.5 l 3.25,2.93709 c 3.02946,2.73778 3.70965,3.56291 2.93709,3.56291 -0.1721,0 -1.6346,-1.4625 -3.25,-3.25 z m 155.9679,0 -1.90499,-2.25 2.25,1.90499 c 2.11444,1.79022 2.70524,2.59501 1.90499,2.59501 -0.18976,0 -1.20226,-1.0125 -2.25,-2.25 z M 801,669.68709 c 0,-0.1721 1.4625,-1.6346 3.25,-3.25 l 3.25,-2.93709 -2.93709,3.25 C 801.82513,669.77946 801,670.45965 801,669.68709 Z M 728.92431,666.25 726.5,663.5 l 2.75,2.42431 c 1.5125,1.33338 2.75,2.57088 2.75,2.75 0,0.78428 -0.8098,0.14598 -3.07569,-2.42431 z m 33.10216,-3.15038 C 739.5384,645.05175 681.12029,586.67635 662.00001,563.14628 614.8897,505.17073 585.28595,454.87802 566.55601,401 561.35016,386.025 556.44866,367.08782 555.41595,357.95983 554.81923,352.68554 554.94377,352 556.4987,352 c 1.85426,0 11.46705,7.8026 29.87716,24.25098 47.37692,42.32854 83.10375,63.48592 125.62414,74.39443 12.29506,3.15426 24.18731,4.68412 42.5,5.46733 l 4,0.17107 -4,0.71619 c -2.55046,0.45665 0.71101,0.71619 9,0.71619 8.28899,0 11.55046,-0.25954 9,-0.71619 -4.7437,-0.84935 -5.53193,-0.73009 13.67045,-2.06838 36.84891,-2.56817 65.13153,-10.88719 97.32955,-28.62841 23.61902,-13.01416 37.39391,-22.77355 64,-45.34343 28.33677,-24.03801 32.5,-26.83444 32.5,-21.83019 0,3.52317 -4.98478,24.72038 -8.20019,34.87041 -7.03106,22.19478 -32.31857,75.62525 -48.51108,102.5 -26.14975,43.40081 -47.05727,69.05185 -99.75391,122.38618 C 789.25025,653.58564 773.65933,668 770.41211,668 c -1.2538,0 -5.02734,-2.20517 -8.38564,-4.90038 z M 653.5,428.39492 c -2.56146,-1.97421 -5.5,-3.59217 -5.5,-3.02831 0,0.5083 6.25783,4.60694 7,4.58474 0.275,-0.008 -0.4,-0.70862 -1.5,-1.55643 z M 572.87201,664.25 C 568.61463,659.57094 561.78707,651 562.31715,651 c 0.27686,0 3.48173,3.6 7.12194,8 6.53264,7.89614 8.30035,10.59953 3.43292,5.25 z M 808,663.68709 c 0,-0.1721 1.4625,-1.6346 3.25,-3.25 l 3.25,-2.93709 -2.93709,3.25 C 808.82513,663.77946 808,664.45965 808,663.68709 Z M 719.46241,657.75 714.5,652.5 l 5.25,4.96241 c 4.87839,4.61116 5.7086,5.53759 4.96241,5.53759 -0.15818,0 -2.52068,-2.3625 -5.25,-5.25 z m 246.90906,-0.0407 c 2.67931,-3.1401 5.08372,-5.7093 5.34312,-5.7093 0.6711,0 -7.65804,9.84788 -9.05516,10.70629 -0.63769,0.3918 1.03273,-1.85684 3.71204,-4.99697 z M 818,654.5 c 1.86578,-1.925 3.61733,-3.5 3.89233,-3.5 0.275,0 -1.02655,1.575 -2.89233,3.5 -1.86578,1.925 -3.61733,3.5 -3.89233,3.5 -0.275,0 1.02655,-1.575 2.89233,-3.5 z M 690.99128,630.25 669.5,608.5 l 21.75,21.49128 c 11.9625,11.8202 21.75,21.6077 21.75,21.75 0,0.70989 -2.03949,-1.28165 -22.00872,-21.49128 z m 135.96693,16.5 c 2.45201,-2.6125 4.58951,-4.75 4.75,-4.75 0.75088,0 -0.043,0.89783 -4.45821,5.04179 L 822.5,651.5 Z m 148.42863,-0.0466 c 2.11975,-2.58687 4.06269,-4.7034 4.31765,-4.7034 0.68189,0 -5.65102,7.84892 -7.01115,8.68953 -0.63833,0.3945 0.57375,-1.39925 2.6935,-3.98613 z m -415.5144,1.5466 c -1.24387,-1.58606 -1.2085,-1.62143 0.37756,-0.37756 0.9625,0.75485 1.75,1.54235 1.75,1.75 0,0.82304 -0.82119,0.29331 -2.12756,-1.37244 z m -6.48436,-8.5 c -2.60085,-3.4375 -5.15725,-6.8125 -5.68089,-7.5 -0.52365,-0.6875 -0.7265,-1.25 -0.4508,-1.25 0.27571,0 3.04152,3.375 6.14624,7.5 3.10472,4.125 5.43555,7.5 5.17961,7.5 -0.25594,0 -2.59331,-2.8125 -5.19416,-6.25 z M 840.5,634 c 4.37419,-4.4 8.17808,-8 8.45308,-8 0.275,0 -3.07889,3.6 -7.45308,8 -4.37419,4.4 -8.17808,8 -8.45308,8 -0.275,0 3.07889,-3.6 7.45308,-8 z m 141,5 c 0.99549,-1.1 2.03498,-2 2.30998,-2 0.275,0 -0.31449,0.9 -1.30998,2 -0.99549,1.1 -2.03498,2 -2.30998,2 -0.275,0 0.31449,-0.9 1.30998,-2 z m 2.5,-3.37756 c 0,-0.20765 0.7875,-0.99515 1.75,-1.75 1.58606,-1.24387 1.62143,-1.2085 0.37756,0.37756 C 984.82119,635.91575 984,636.44548 984,635.62244 Z m 3,-4 c 0,-0.20765 0.7875,-0.99515 1.75,-1.75 1.58606,-1.24387 1.62143,-1.2085 0.37756,0.37756 C 987.82119,631.91575 987,632.44548 987,631.62244 Z M 544.87244,628.25 c -1.24387,-1.58606 -1.2085,-1.62143 0.37756,-0.37756 1.66575,1.30637 2.19548,2.12756 1.37244,2.12756 -0.20765,0 -0.99515,-0.7875 -1.75,-1.75 z M 990,627.62244 c 0,-0.20765 0.7875,-0.99515 1.75,-1.75 1.58606,-1.24387 1.62143,-1.2085 0.37756,0.37756 C 990.82119,627.91575 990,628.44548 990,627.62244 Z M 541,623 c -1.1749,-1.65 -1.91119,-3 -1.63619,-3 0.275,0 1.46129,1.35 2.63619,3 1.1749,1.65 1.91119,3 1.63619,3 -0.275,0 -1.46129,-1.35 -2.63619,-3 z m 454,-2 c 1.1749,-1.65 2.36119,-3 2.63619,-3 0.275,0 -0.46129,1.35 -1.63619,3 -1.1749,1.65 -2.36119,3 -2.63619,3 -0.275,0 0.46129,-1.35 1.63619,-3 z m -459,-5 c -1.1749,-1.65 -1.91119,-3 -1.63619,-3 0.275,0 1.46129,1.35 2.63619,3 1.1749,1.65 1.91119,3 1.63619,3 -0.275,0 -1.46129,-1.35 -2.63619,-3 z m 329.5,-7 c 4.37419,-4.4 8.17808,-8 8.45308,-8 0.275,0 -3.07889,3.6 -7.45308,8 -4.37419,4.4 -8.17808,8 -8.45308,8 -0.275,0 3.07889,-3.6 7.45308,-8 z m 134.5,5 c 1.1749,-1.65 2.3612,-3 2.6362,-3 0.275,0 -0.4613,1.35 -1.6362,3 -1.1749,1.65 -2.36119,3 -2.63619,3 -0.275,0 0.46129,-1.35 1.63619,-3 z m 9.6387,-14 c 2.5601,-3.85 4.8403,-7 5.067,-7 0.5311,0 -0.2119,1.24655 -4.9171,8.25 -2.1247,3.1625 -4.0749,5.75 -4.3338,5.75 -0.2589,0 1.6239,-3.15 4.1839,-7 z m -486.43411,-2.75 c -6.50633,-9.73669 -8.04853,-12.29328 -6.48466,-10.75 1.59237,1.57141 13.38999,19.5 12.83166,19.5 -0.275,0 -3.13115,-3.9375 -6.347,-8.75 z M 663,601.5 c -2.42903,-2.475 -4.19142,-4.5 -3.91642,-4.5 0.275,0 2.48739,2.025 4.91642,4.5 2.42903,2.475 4.19142,4.5 3.91642,4.5 -0.275,0 -2.48739,-2.025 -4.91642,-4.5 z m 214,-5 c 1.86578,-1.925 3.61733,-3.5 3.89233,-3.5 0.275,0 -1.02655,1.575 -2.89233,3.5 -1.86578,1.925 -3.61733,3.5 -3.89233,3.5 -0.275,0 1.02655,-1.575 2.89233,-3.5 z M 655.43709,592.75 652.5,589.5 l 3.25,2.93709 c 3.02946,2.73778 3.70965,3.56291 2.93709,3.56291 -0.1721,0 -1.6346,-1.4625 -3.25,-3.25 z M 881,591.68709 c 0,-0.1721 1.4625,-1.6346 3.25,-3.25 l 3.25,-2.93709 -2.93709,3.25 C 881.82513,591.77946 881,592.45965 881,591.68709 Z M 648.92431,585.25 646.5,582.5 l 2.75,2.42431 c 1.5125,1.33338 2.75,2.57088 2.75,2.75 0,0.78428 -0.8098,0.14598 -3.07569,-2.42431 z m 370.94729,-0.75 c 0.54,-1.1 1.7146,-2.9 2.6103,-4 l 1.6284,-2 -0.9819,2 c -0.54,1.1 -1.7146,2.9 -2.6103,4 l -1.6284,2 z M 888.5,583 c 0.99549,-1.1 2.03498,-2 2.30998,-2 0.275,0 -0.31449,0.9 -1.30998,2 -0.99549,1.1 -2.03498,2 -2.30998,2 -0.275,0 0.31449,-0.9 1.30998,-2 z M 643.92431,579.25 641.5,576.5 l 2.75,2.42431 c 1.5125,1.33338 2.75,2.57088 2.75,2.75 0,0.78428 -0.8098,0.14598 -3.07569,-2.42431 z M 892.5,578 c 0.99549,-1.1 2.03498,-2 2.30998,-2 0.275,0 -0.31449,0.9 -1.30998,2 -0.99549,1.1 -2.03498,2 -2.30998,2 -0.275,0 0.31449,-0.9 1.30998,-2 z M 510,577 c -0.5887,-1.1 -0.84537,-2 -0.57037,-2 0.275,0 0.98167,0.9 1.57037,2 0.5887,1.1 0.84537,2 0.57037,2 -0.275,0 -0.98167,-0.9 -1.57037,-2 z m 515,-1 c 0.5887,-1.1 1.2954,-2 1.5704,-2 0.275,0 0.018,0.9 -0.5704,2 -0.5887,1.1 -1.2954,2 -1.5704,2 -0.275,0 -0.018,-0.9 0.5704,-2 z M 639.40499,573.75 637.5,571.5 l 2.25,1.90499 c 2.11444,1.79022 2.70524,2.59501 1.90499,2.59501 -0.18976,0 -1.20226,-1.0125 -2.25,-2.25 z M 896.5,573 c 0.99549,-1.1 2.03498,-2 2.30998,-2 0.275,0 -0.31449,0.9 -1.30998,2 -0.99549,1.1 -2.03498,2 -2.30998,2 -0.275,0 0.31449,-0.9 1.30998,-2 z m -389.11874,-0.25 c -0.40522,-0.6875 -1.37925,-2.375 -2.1645,-3.75 -1.37076,-2.40022 -1.36074,-2.42018 0.25102,-0.5 2.03116,2.41982 3.78205,5.5 3.12642,5.5 -0.26189,0 -0.80771,-0.5625 -1.21294,-1.25 z M 1028,571 c 0.5887,-1.1 1.2954,-2 1.5704,-2 0.275,0 0.018,0.9 -0.5704,2 -0.5887,1.1 -1.2954,2 -1.5704,2 -0.275,0 -0.018,-0.9 0.5704,-2 z M 635.40499,568.75 633.5,566.5 l 2.25,1.90499 c 2.11444,1.79022 2.70524,2.59501 1.90499,2.59501 -0.18976,0 -1.20226,-1.0125 -2.25,-2.25 z M 899,569.62244 c 0,-0.20765 0.7875,-0.99515 1.75,-1.75 1.58606,-1.24387 1.62143,-1.2085 0.37756,0.37756 C 899.82119,569.91575 899,570.44548 899,569.62244 Z M 1031,566 c 0.5887,-1.1 1.2954,-2 1.5704,-2 0.275,0 0.018,0.9 -0.5704,2 -0.5887,1.1 -1.2954,2 -1.5704,2 -0.275,0 -0.018,-0.9 0.5704,-2 z m -529,-2 c -0.5887,-1.1 -0.84537,-2 -0.57037,-2 0.275,0 0.98167,0.9 1.57037,2 0.5887,1.1 0.84537,2 0.57037,2 -0.275,0 -0.98167,-0.9 -1.57037,-2 z m 129.40499,-0.25 -1.90499,-2.25 2.25,1.90499 c 2.11444,1.79022 2.70524,2.59501 1.90499,2.59501 -0.18976,0 -1.20226,-1.0125 -2.25,-2.25 z M 902,565.62244 c 0,-0.20765 0.7875,-0.99515 1.75,-1.75 1.58606,-1.24387 1.62143,-1.2085 0.37756,0.37756 C 902.82119,565.91575 902,566.44548 902,565.62244 Z M 1034.5,560 c 0.8532,-1.65 1.7764,-3 2.0514,-3 0.275,0 -0.1982,1.35 -1.0514,3 -0.8532,1.65 -1.7764,3 -2.0514,3 -0.275,0 0.1982,-1.35 1.0514,-3 z M 905,561.62244 c 0,-0.20765 0.7875,-0.99515 1.75,-1.75 1.58606,-1.24387 1.62143,-1.2085 0.37756,0.37756 C 905.82119,561.91575 905,562.44548 905,561.62244 Z M 499,559 c -0.5887,-1.1 -0.84537,-2 -0.57037,-2 0.275,0 0.98167,0.9 1.57037,2 0.5887,1.1 0.84537,2 0.57037,2 -0.275,0 -0.98167,-0.9 -1.57037,-2 z m 128.87244,0.25 c -1.24387,-1.58606 -1.2085,-1.62143 0.37756,-0.37756 0.9625,0.75485 1.75,1.54235 1.75,1.75 0,0.82304 -0.82119,0.29331 -2.12756,-1.37244 z M 910,555 c 1.1749,-1.65 2.36119,-3 2.63619,-3 0.275,0 -0.46129,1.35 -1.63619,3 -1.1749,1.65 -2.36119,3 -2.63619,3 -0.275,0 0.46129,-1.35 1.63619,-3 z m -285.12756,0.25 c -1.24387,-1.58606 -1.2085,-1.62143 0.37756,-0.37756 0.9625,0.75485 1.75,1.54235 1.75,1.75 0,0.82304 -0.82119,0.29331 -2.12756,-1.37244 z M 496,554 c -0.5887,-1.1 -0.84537,-2 -0.57037,-2 0.275,0 0.98167,0.9 1.57037,2 0.5887,1.1 0.84537,2 0.57037,2 -0.275,0 -0.98167,-0.9 -1.57037,-2 z m 542.5,-1 c 0.8532,-1.65 1.7764,-3 2.0514,-3 0.275,0 -0.1982,1.35 -1.0514,3 -0.8532,1.65 -1.7764,3 -2.0514,3 -0.275,0 0.1982,-1.35 1.0514,-3 z m -416.62756,-1.75 c -1.24387,-1.58606 -1.2085,-1.62143 0.37756,-0.37756 0.9625,0.75485 1.75,1.54235 1.75,1.75 0,0.82304 -0.82119,0.29331 -2.12756,-1.37244 z M 915,548 c 1.1749,-1.65 2.36119,-3 2.63619,-3 0.275,0 -0.46129,1.35 -1.63619,3 -1.1749,1.65 -2.36119,3 -2.63619,3 -0.275,0 0.46129,-1.35 1.63619,-3 z m -423,-1 c -0.5887,-1.1 -0.84537,-2 -0.57037,-2 0.275,0 0.98167,0.9 1.57037,2 0.5887,1.1 0.84537,2 0.57037,2 -0.275,0 -0.98167,-0.9 -1.57037,-2 z m 126.87244,0.25 c -1.24387,-1.58606 -1.2085,-1.62143 0.37756,-0.37756 0.9625,0.75485 1.75,1.54235 1.75,1.75 0,0.82304 -0.82119,0.29331 -2.12756,-1.37244 z M 1043.5,544 c 0.8532,-1.65 1.7764,-3 2.0514,-3 0.275,0 -0.1982,1.35 -1.0514,3 -0.8532,1.65 -1.7764,3 -2.0514,3 -0.275,0 0.1982,-1.35 1.0514,-3 z m -556,-5 c -0.85325,-1.65 -1.32636,-3 -1.05136,-3 0.275,0 1.19811,1.35 2.05136,3 0.85325,1.65 1.32636,3 1.05136,3 -0.275,0 -1.19811,-1.35 -2.05136,-3 z m 126.37244,1.25 c -1.24387,-1.58606 -1.2085,-1.62143 0.37756,-0.37756 0.9625,0.75485 1.75,1.54235 1.75,1.75 0,0.82304 -0.82119,0.29331 -2.12756,-1.37244 z m 442.84466,-21.70325 c 4.7903,-9.5993 8.8654,-17.29761 9.0556,-17.10736 0.44,0.43996 -16.6147,34.56061 -17.2746,34.56061 -0.2699,0 3.4286,-7.85396 8.219,-17.45325 z M 482,529 c -1.12236,-2.2 -1.81565,-4 -1.54065,-4 0.275,0 1.41829,1.8 2.54065,4 1.12236,2.2 1.81565,4 1.54065,4 -0.275,0 -1.41829,-1.8 -2.54065,-4 z m 122.21141,-2.75 c -4.70524,-7.00345 -5.44821,-8.25 -4.91714,-8.25 0.22676,0 2.50691,3.15 5.06698,7 2.56008,3.85 4.44287,7 4.18398,7 -0.25889,0 -2.20911,-2.5875 -4.33382,-5.75 z M 933,521 c 0.5887,-1.1 1.29537,-2 1.57037,-2 0.275,0 0.0183,0.9 -0.57037,2 -0.5887,1.1 -1.29537,2 -1.57037,2 -0.275,0 -0.0183,-0.9 0.57037,-2 z m 5,-8 c 0.5887,-1.1 1.29537,-2 1.57037,-2 0.275,0 0.0183,0.9 -0.57037,2 -0.5887,1.1 -1.29537,2 -1.57037,2 -0.275,0 -0.0183,-0.9 0.57037,-2 z m -343,-1 c -0.5887,-1.1 -0.84537,-2 -0.57037,-2 0.275,0 0.98167,0.9 1.57037,2 0.5887,1.1 0.84537,2 0.57037,2 -0.275,0 -0.98167,-0.9 -1.57037,-2 z m 348,-7 c 0.5887,-1.1 1.29537,-2 1.57037,-2 0.275,0 0.0183,0.9 -0.57037,2 -0.5887,1.1 -1.29537,2 -1.57037,2 -0.275,0 -0.0183,-0.9 0.57037,-2 z m -353,-1 c -0.5887,-1.1 -0.84537,-2 -0.57037,-2 0.275,0 0.98167,0.9 1.57037,2 0.5887,1.1 0.84537,2 0.57037,2 -0.275,0 -0.98167,-0.9 -1.57037,-2 z m -3,-5 c -0.5887,-1.1 -0.84537,-2 -0.57037,-2 0.275,0 0.98167,0.9 1.57037,2 0.5887,1.1 0.84537,2 0.57037,2 -0.275,0 -0.98167,-0.9 -1.57037,-2 z m 360,-1 c 0.5887,-1.1 1.29537,-2 1.57037,-2 0.275,0 0.0183,0.9 -0.57037,2 -0.5887,1.1 -1.29537,2 -1.57037,2 -0.275,0 -0.0183,-0.9 0.57037,-2 z m -481.83756,-2.54283 c -1.67549,-3.67729 -1.35583,-4.46179 0.45586,-1.11876 0.84602,1.56112 1.3511,3.02552 1.1224,3.25422 -0.2287,0.2287 -0.93892,-0.73225 -1.57826,-2.13546 z M 584,494 c -0.5887,-1.1 -0.84537,-2 -0.57037,-2 0.275,0 0.98167,0.9 1.57037,2 0.5887,1.1 0.84537,2 0.57037,2 -0.275,0 -0.98167,-0.9 -1.57037,-2 z m 484.0709,1.5 c 0,-0.55 0.6431,-2.125 1.4291,-3.5 0.786,-1.375 1.4291,-2.05 1.4291,-1.5 0,0.55 -0.6431,2.125 -1.4291,3.5 -0.786,1.375 -1.4291,2.05 -1.4291,1.5 z M 950,493 c 0.5887,-1.1 1.29537,-2 1.57037,-2 0.275,0 0.0183,0.9 -0.57037,2 -0.5887,1.1 -1.29537,2 -1.57037,2 -0.275,0 -0.0183,-0.9 0.57037,-2 z m 3.5,-6 c 0.85325,-1.65 1.77636,-3 2.05136,-3 0.275,0 -0.19811,1.35 -1.05136,3 -0.85325,1.65 -1.77636,3 -2.05136,3 -0.275,0 0.19811,-1.35 1.05136,-3 z m -374,-1 c -0.85325,-1.65 -1.32636,-3 -1.05136,-3 0.275,0 1.19811,1.35 2.05136,3 0.85325,1.65 1.32636,3 1.05136,3 -0.275,0 -1.19811,-1.35 -2.05136,-3 z m -119.87646,-2.53866 c -0.96498,-2.51469 -0.68031,-3.16355 0.49853,-1.13634 0.58369,1.00375 0.8506,2.03566 0.59313,2.29313 -0.25747,0.25747 -0.74872,-0.26309 -1.09166,-1.15679 z M 1073.0306,484.5 c 0,-0.55 0.4362,-1.675 0.9694,-2.5 0.5332,-0.825 0.9694,-1.05 0.9694,-0.5 0,0.55 -0.4362,1.675 -0.9694,2.5 -0.5332,0.825 -0.9694,1.05 -0.9694,0.5 z M 958.5,478 c 0.85325,-1.65 1.77636,-3 2.05136,-3 0.275,0 -0.19811,1.35 -1.05136,3 -0.85325,1.65 -1.77636,3 -2.05136,3 -0.275,0 0.19811,-1.35 1.05136,-3 z m -385,-3 c -1.39353,-2.75 -2.30869,-5 -2.03369,-5 0.275,0 1.64016,2.25 3.03369,5 1.39353,2.75 2.30869,5 2.03369,5 -0.275,0 -1.64016,-2.25 -3.03369,-5 z m -116.87646,1.46134 c -0.96498,-2.51469 -0.68031,-3.16355 0.49853,-1.13634 0.58369,1.00375 0.8506,2.03566 0.59313,2.29313 -0.25747,0.25747 -0.74872,-0.26309 -1.09166,-1.15679 z M 1076.0306,477.5 c 0,-0.55 0.4362,-1.675 0.9694,-2.5 0.5332,-0.825 0.9694,-1.05 0.9694,-0.5 0,0.55 -0.4362,1.675 -0.9694,2.5 -0.5332,0.825 -0.9694,1.05 -0.9694,0.5 z m -622.40706,-8.03866 c -0.96498,-2.51469 -0.68031,-3.16355 0.49853,-1.13634 0.58369,1.00375 0.8506,2.03566 0.59313,2.29313 -0.25747,0.25747 -0.74872,-0.26309 -1.09166,-1.15679 z M 1079.0306,470.5 c 0,-0.55 0.4362,-1.675 0.9694,-2.5 0.5332,-0.825 0.9694,-1.05 0.9694,-0.5 0,0.55 -0.4362,1.675 -0.9694,2.5 -0.5332,0.825 -0.9694,1.05 -0.9694,0.5 z m -627.40706,-6.03866 c -0.96498,-2.51469 -0.68031,-3.16355 0.49853,-1.13634 0.58369,1.00375 0.8506,2.03566 0.59313,2.29313 -0.25747,0.25747 -0.74872,-0.26309 -1.09166,-1.15679 z m 516.07186,-3.94878 c 0.91468,-1.9181 1.84058,-3.30991 2.05756,-3.09293 0.45746,0.45746 -2.5782,6.58037 -3.26246,6.58037 -0.25198,0 0.29023,-1.56935 1.2049,-3.48744 z m -518.07186,-1.05122 c -0.96498,-2.51469 -0.68031,-3.16355 0.49853,-1.13634 0.58369,1.00375 0.8506,2.03566 0.59313,2.29313 -0.25747,0.25747 -0.74872,-0.26309 -1.09166,-1.15679 z M 1083.0306,460.5 c 0,-0.55 0.4362,-1.675 0.9694,-2.5 0.5332,-0.825 0.9694,-1.05 0.9694,-0.5 0,0.55 -0.4362,1.675 -0.9694,2.5 -0.5332,0.825 -0.9694,1.05 -0.9694,0.5 z m -321.2181,-4.18311 c 0.72187,-0.28887 1.58438,-0.25335 1.91667,0.0789 0.33229,0.33229 -0.25834,0.56864 -1.3125,0.52522 -1.16495,-0.048 -1.4019,-0.28494 -0.60417,-0.60416 z M 1085.0306,455.5 c 0,-0.55 0.4362,-1.675 0.9694,-2.5 0.5332,-0.825 0.9694,-1.05 0.9694,-0.5 0,0.55 -0.4362,1.675 -0.9694,2.5 -0.5332,0.825 -0.9694,1.05 -0.9694,0.5 z m -523.84199,-5.04869 c -3.01248,-6.2006 -2.67678,-7.06853 0.42682,-1.10351 1.38727,2.66629 2.35119,5.01891 2.14205,5.22806 -0.20915,0.20914 -1.36514,-1.6469 -2.56887,-4.12455 z m -114.56507,1.01003 c -0.96498,-2.51469 -0.68031,-3.16355 0.49853,-1.13634 0.58369,1.00375 0.8506,2.03566 0.59313,2.29313 -0.25747,0.25747 -0.74872,-0.26309 -1.09166,-1.15679 z M 1087.0306,450.5 c 0,-0.55 0.4362,-1.675 0.9694,-2.5 0.5332,-0.825 0.9694,-1.05 0.9694,-0.5 0,0.55 -0.4362,1.675 -0.9694,2.5 -0.5332,0.825 -0.9694,1.05 -0.9694,0.5 z m -643.40706,-7.03866 c -0.96498,-2.51469 -0.68031,-3.16355 0.49853,-1.13634 0.58369,1.00375 0.8506,2.03566 0.59313,2.29313 -0.25747,0.25747 -0.74872,-0.26309 -1.09166,-1.15679 z M 976.03063,443.5 c 0,-0.55 0.43621,-1.675 0.96937,-2.5 0.53316,-0.825 0.96937,-1.05 0.96937,-0.5 0,0.55 -0.43621,1.675 -0.96937,2.5 -0.53316,0.825 -0.96937,1.05 -0.96937,0.5 z m 113.99997,-1 c 0,-0.55 0.4362,-1.675 0.9694,-2.5 0.5332,-0.825 0.9694,-1.05 0.9694,-0.5 0,0.55 -0.4362,1.675 -0.9694,2.5 -0.5332,0.825 -0.9694,1.05 -0.9694,0.5 z m -534.86816,-5.04283 c -1.67549,-3.67729 -1.35583,-4.46179 0.45586,-1.11876 0.84602,1.56112 1.3511,3.02552 1.1224,3.25422 -0.2287,0.2287 -0.93892,-0.73225 -1.57826,-2.13546 z M 980.03063,434.5 c 0,-0.55 0.43621,-1.675 0.96937,-2.5 0.53316,-0.825 0.96937,-1.05 0.96937,-0.5 0,0.55 -0.43621,1.675 -0.96937,2.5 -0.53316,0.825 -0.96937,1.05 -0.96937,0.5 z M 1093.5732,433 c 0.3678,-1.375 1.0858,-3.175 1.5955,-4 0.6441,-1.04249 0.7228,-0.73748 0.2581,1 -0.3678,1.375 -1.0858,3.175 -1.5955,4 -0.6441,1.04249 -0.7228,0.73748 -0.2581,-1 z m -541.94966,-3.53866 c -0.96498,-2.51469 -0.68031,-3.16355 0.49853,-1.13634 0.58369,1.00375 0.8506,2.03566 0.59313,2.29313 -0.25747,0.25747 -0.74872,-0.26309 -1.09166,-1.15679 z M 983.03063,427.5 c 0,-0.55 0.43621,-1.675 0.96937,-2.5 0.53316,-0.825 0.96937,-1.05 0.96937,-0.5 0,0.55 -0.43621,1.675 -0.96937,2.5 -0.53316,0.825 -0.96937,1.05 -0.96937,0.5 z m -433.40709,-3.03866 c -0.96498,-2.51469 -0.68031,-3.16355 0.49853,-1.13634 0.58369,1.00375 0.8506,2.03566 0.59313,2.29313 -0.25747,0.25747 -0.74872,-0.26309 -1.09166,-1.15679 z M 988.03063,415.5 c 0,-0.55 0.43621,-1.675 0.96937,-2.5 0.53316,-0.825 0.96937,-1.05 0.96937,-0.5 0,0.55 -0.43621,1.675 -0.96937,2.5 -0.53316,0.825 -0.96937,1.05 -0.96937,0.5 z m -554.95168,-4.08333 c 0.048,-1.16495 0.28494,-1.4019 0.60416,-0.60417 0.28887,0.72187 0.25335,1.58438 -0.0789,1.91667 -0.33229,0.33229 -0.56864,-0.25834 -0.52522,-1.3125 z M 991.03063,407.5 c 0,-0.55 0.43621,-1.675 0.96937,-2.5 0.53316,-0.825 0.96937,-1.05 0.96937,-0.5 0,0.55 -0.43621,1.675 -0.96937,2.5 -0.53316,0.825 -0.96937,1.05 -0.96937,0.5 z m -560.95168,-6.08333 c 0.048,-1.16495 0.28494,-1.4019 0.60416,-0.60417 0.28887,0.72187 0.25335,1.58438 -0.0789,1.91667 -0.33229,0.33229 -0.56864,-0.25834 -0.52522,-1.3125 z m 673.99995,0 c 0.048,-1.16495 0.285,-1.4019 0.6042,-0.60417 0.2889,0.72187 0.2534,1.58438 -0.079,1.91667 -0.3323,0.33229 -0.5687,-0.25834 -0.5253,-1.3125 z M 995.63394,395 c 0.33732,-1.375 1.22805,-3.85 1.97938,-5.5 1.09714,-2.40941 1.24533,-2.50784 0.75274,-0.5 -0.33732,1.375 -1.22805,3.85 -1.97938,5.5 -1.09714,2.40941 -1.24533,2.50784 -0.75274,0.5 z m -567.55499,-0.58333 c 0.048,-1.16495 0.28494,-1.4019 0.60416,-0.60417 0.28887,0.72187 0.25335,1.58438 -0.0789,1.91667 -0.33229,0.33229 -0.56864,-0.25834 -0.52522,-1.3125 z m 678.99995,-3 c 0.048,-1.16495 0.285,-1.4019 0.6042,-0.60417 0.2889,0.72187 0.2534,1.58438 -0.079,1.91667 -0.3323,0.33229 -0.5687,-0.25834 -0.5253,-1.3125 z m -680.99995,-4 c 0.048,-1.16495 0.28494,-1.4019 0.60416,-0.60417 0.28887,0.72187 0.25335,1.58438 -0.0789,1.91667 -0.33229,0.33229 -0.56864,-0.25834 -0.52522,-1.3125 z m 682.99995,-3 c 0.048,-1.16495 0.285,-1.4019 0.6042,-0.60417 0.2889,0.72187 0.2534,1.58438 -0.079,1.91667 -0.3323,0.33229 -0.5687,-0.25834 -0.5253,-1.3125 z m -683.99995,-1 c 0.048,-1.16495 0.28494,-1.4019 0.60416,-0.60417 0.28887,0.72187 0.25335,1.58438 -0.0789,1.91667 -0.33229,0.33229 -0.56864,-0.25834 -0.52522,-1.3125 z m -1,-4 c 0.048,-1.16495 0.28494,-1.4019 0.60416,-0.60417 0.28887,0.72187 0.25335,1.58438 -0.0789,1.91667 -0.33229,0.33229 -0.56864,-0.25834 -0.52522,-1.3125 z m 109,-1 c 0.048,-1.16495 0.28494,-1.4019 0.60416,-0.60417 0.28887,0.72187 0.25335,1.58438 -0.0789,1.91667 -0.33229,0.33229 -0.56864,-0.25834 -0.52522,-1.3125 z m 467.99995,0 c 0.048,-1.16495 0.285,-1.4019 0.6042,-0.60417 0.2889,0.72187 0.2534,1.58438 -0.079,1.91667 -0.3323,0.33229 -0.5687,-0.25834 -0.5253,-1.3125 z m 110,-1 c 0.048,-1.16495 0.285,-1.4019 0.6042,-0.60417 0.2889,0.72187 0.2534,1.58438 -0.079,1.91667 -0.3323,0.33229 -0.5687,-0.25834 -0.5253,-1.3125 z m -687.99995,-2 c 0.048,-1.16495 0.28494,-1.4019 0.60416,-0.60417 0.28887,0.72187 0.25335,1.58438 -0.0789,1.91667 -0.33229,0.33229 -0.56864,-0.25834 -0.52522,-1.3125 z m 688.99995,-2 c 0.048,-1.16495 0.285,-1.4019 0.6042,-0.60417 0.2889,0.72187 0.2534,1.58438 -0.079,1.91667 -0.3323,0.33229 -0.5687,-0.25834 -0.5253,-1.3125 z m 1,-4 c 0.048,-1.16495 0.285,-1.4019 0.6042,-0.60417 0.2889,0.72187 0.2534,1.58438 -0.079,1.91667 -0.3323,0.33229 -0.5687,-0.25834 -0.5253,-1.3125 z m -109,-1 c 0.048,-1.16495 0.285,-1.4019 0.6042,-0.60417 0.2889,0.72187 0.2534,1.58438 -0.079,1.91667 -0.3323,0.33229 -0.5687,-0.25834 -0.5253,-1.3125 z m -582.99995,-1 c 0.048,-1.16495 0.28494,-1.4019 0.60416,-0.60417 0.28887,0.72187 0.25335,1.58438 -0.0789,1.91667 -0.33229,0.33229 -0.56864,-0.25834 -0.52522,-1.3125 z m 108,-2 c 0.048,-1.16495 0.28494,-1.4019 0.60416,-0.60417 0.28887,0.72187 0.25335,1.58438 -0.0789,1.91667 -0.33229,0.33229 -0.56864,-0.25834 -0.52522,-1.3125 z m 584.99995,0 c 0.048,-1.16495 0.285,-1.4019 0.6042,-0.60417 0.2889,0.72187 0.2534,1.58438 -0.079,1.91667 -0.3323,0.33229 -0.5687,-0.25834 -0.5253,-1.3125 z m -693.99995,-2 c 0.048,-1.16495 0.28494,-1.4019 0.60416,-0.60417 0.28887,0.72187 0.25335,1.58438 -0.0789,1.91667 -0.33229,0.33229 -0.56864,-0.25834 -0.52522,-1.3125 z m 585.99995,-2 c 0.048,-1.16495 0.285,-1.4019 0.6042,-0.60417 0.2889,0.72187 0.2534,1.58438 -0.079,1.91667 -0.3323,0.33229 -0.5687,-0.25834 -0.5253,-1.3125 z m 109,0 c 0.048,-1.16495 0.285,-1.4019 0.6042,-0.60417 0.2889,0.72187 0.2534,1.58438 -0.079,1.91667 -0.3323,0.33229 -0.5687,-0.25834 -0.5253,-1.3125 z m -695.99995,-2 c 0.048,-1.16495 0.28494,-1.4019 0.60416,-0.60417 0.28887,0.72187 0.25335,1.58438 -0.0789,1.91667 -0.33229,0.33229 -0.56864,-0.25834 -0.52522,-1.3125 z m 587.99995,-2 c 0.048,-1.16495 0.285,-1.4019 0.6042,-0.60417 0.2889,0.72187 0.2534,1.58438 -0.079,1.91667 -0.3323,0.33229 -0.5687,-0.25834 -0.5253,-1.3125 z m 109,0 c 0.048,-1.16495 0.285,-1.4019 0.6042,-0.60417 0.2889,0.72187 0.2534,1.58438 -0.079,1.91667 -0.3323,0.33229 -0.5687,-0.25834 -0.5253,-1.3125 z m -697.99995,-3 c 0.048,-1.16495 0.28494,-1.4019 0.60416,-0.60417 0.28887,0.72187 0.25335,1.58438 -0.0789,1.91667 -0.33229,0.33229 -0.56864,-0.25834 -0.52522,-1.3125 z m 108,0 c 0.048,-1.16495 0.28494,-1.4019 0.60416,-0.60417 0.28887,0.72187 0.25335,1.58438 -0.0789,1.91667 -0.33229,0.33229 -0.56864,-0.25834 -0.52522,-1.3125 z m 590.99995,-1 c 0.048,-1.16495 0.285,-1.4019 0.6042,-0.60417 0.2889,0.72187 0.2534,1.58438 -0.079,1.91667 -0.3323,0.33229 -0.5687,-0.25834 -0.5253,-1.3125 z M 417.15789,350 c 0,-1.375 0.22698,-1.9375 0.50439,-1.25 0.27741,0.6875 0.27741,1.8125 0,2.5 -0.27741,0.6875 -0.50439,0.125 -0.50439,-1.25 z m 107.92106,0.41667 c 0.048,-1.16495 0.28494,-1.4019 0.60416,-0.60417 0.28887,0.72187 0.25335,1.58438 -0.0789,1.91667 -0.33229,0.33229 -0.56864,-0.25834 -0.52522,-1.3125 z m 483.99995,0 c 0.048,-1.16495 0.285,-1.4019 0.6042,-0.60417 0.2889,0.72187 0.2534,1.58438 -0.079,1.91667 -0.3323,0.33229 -0.5687,-0.25834 -0.5253,-1.3125 z m 109,-2 c 0.048,-1.16495 0.285,-1.4019 0.6042,-0.60417 0.2889,0.72187 0.2534,1.58438 -0.079,1.91667 -0.3323,0.33229 -0.5687,-0.25834 -0.5253,-1.3125 z m -593.99995,-2 c 0.048,-1.16495 0.28494,-1.4019 0.60416,-0.60417 0.28887,0.72187 0.25335,1.58438 -0.0789,1.91667 -0.33229,0.33229 -0.56864,-0.25834 -0.52522,-1.3125 z M 416.15789,345 c 0,-1.375 0.22698,-1.9375 0.50439,-1.25 0.27741,0.6875 0.27741,1.8125 0,2.5 -0.27741,0.6875 -0.50439,0.125 -0.50439,-1.25 z m 593.92101,0.41667 c 0.048,-1.16495 0.285,-1.4019 0.6042,-0.60417 0.2889,0.72187 0.2534,1.58438 -0.079,1.91667 -0.3323,0.33229 -0.5687,-0.25834 -0.5253,-1.3125 z m 109,-1 c 0.048,-1.16495 0.285,-1.4019 0.6042,-0.60417 0.2889,0.72187 0.2534,1.58438 -0.079,1.91667 -0.3323,0.33229 -0.5687,-0.25834 -0.5253,-1.3125 z m -595.99995,-2 c 0.048,-1.16495 0.28494,-1.4019 0.60416,-0.60417 0.28887,0.72187 0.25335,1.58438 -0.0789,1.91667 -0.33229,0.33229 -0.56864,-0.25834 -0.52522,-1.3125 z m 487.99995,-1 c 0.048,-1.16495 0.285,-1.4019 0.6042,-0.60417 0.2889,0.72187 0.2534,1.58438 -0.079,1.91667 -0.3323,0.33229 -0.5687,-0.25834 -0.5253,-1.3125 z M 415.15789,340 c 0,-1.375 0.22698,-1.9375 0.50439,-1.25 0.27741,0.6875 0.27741,1.8125 0,2.5 -0.27741,0.6875 -0.50439,0.125 -0.50439,-1.25 z m 705.00001,-1 c 0,-1.375 0.227,-1.9375 0.5044,-1.25 0.2774,0.6875 0.2774,1.8125 0,2.5 -0.2774,0.6875 -0.5044,0.125 -0.5044,-1.25 z m -598.07895,-0.58333 c 0.048,-1.16495 0.28494,-1.4019 0.60416,-0.60417 0.28887,0.72187 0.25335,1.58438 -0.0789,1.91667 -0.33229,0.33229 -0.56864,-0.25834 -0.52522,-1.3125 z m 489.99995,-1 c 0.048,-1.16495 0.285,-1.4019 0.6042,-0.60417 0.2889,0.72187 0.2534,1.58438 -0.079,1.91667 -0.3323,0.33229 -0.5687,-0.25834 -0.5253,-1.3125 z M 414.15789,335 c 0,-1.375 0.22698,-1.9375 0.50439,-1.25 0.27741,0.6875 0.27741,1.8125 0,2.5 -0.27741,0.6875 -0.50439,0.125 -0.50439,-1.25 z m 707.00001,-1 c 0,-1.375 0.227,-1.9375 0.5044,-1.25 0.2774,0.6875 0.2774,1.8125 0,2.5 -0.2774,0.6875 -0.5044,0.125 -0.5044,-1.25 z m -600.07895,-0.58333 c 0.048,-1.16495 0.28494,-1.4019 0.60416,-0.60417 0.28887,0.72187 0.25335,1.58438 -0.0789,1.91667 -0.33229,0.33229 -0.56864,-0.25834 -0.52522,-1.3125 z m 491.99995,-1 c 0.048,-1.16495 0.285,-1.4019 0.6042,-0.60417 0.2889,0.72187 0.2534,1.58438 -0.079,1.91667 -0.3323,0.33229 -0.5687,-0.25834 -0.5253,-1.3125 z M 413.15789,330 c 0,-1.375 0.22698,-1.9375 0.50439,-1.25 0.27741,0.6875 0.27741,1.8125 0,2.5 -0.27741,0.6875 -0.50439,0.125 -0.50439,-1.25 z m 106.92106,-0.58333 c 0.048,-1.16495 0.28494,-1.4019 0.60416,-0.60417 0.28887,0.72187 0.25335,1.58438 -0.0789,1.91667 -0.33229,0.33229 -0.56864,-0.25834 -0.52522,-1.3125 z m 493.99995,-2 c 0.048,-1.16495 0.285,-1.4019 0.6042,-0.60417 0.2889,0.72187 0.2534,1.58438 -0.079,1.91667 -0.3323,0.33229 -0.5687,-0.25834 -0.5253,-1.3125 z m 108,0 c 0.048,-1.16495 0.285,-1.4019 0.6042,-0.60417 0.2889,0.72187 0.2534,1.58438 -0.079,1.91667 -0.3323,0.33229 -0.5687,-0.25834 -0.5253,-1.3125 z M 412.15789,324 c 0,-1.375 0.22698,-1.9375 0.50439,-1.25 0.27741,0.6875 0.27741,1.8125 0,2.5 -0.27741,0.6875 -0.50439,0.125 -0.50439,-1.25 z m 106.92106,0.41667 c 0.048,-1.16495 0.28494,-1.4019 0.60416,-0.60417 0.28887,0.72187 0.25335,1.58438 -0.0789,1.91667 -0.33229,0.33229 -0.56864,-0.25834 -0.52522,-1.3125 z m 495.99995,-2 c 0.048,-1.16495 0.285,-1.4019 0.6042,-0.60417 0.2889,0.72187 0.2534,1.58438 -0.079,1.91667 -0.3323,0.33229 -0.5687,-0.25834 -0.5253,-1.3125 z M 1123.1579,321 c 0,-1.375 0.227,-1.9375 0.5044,-1.25 0.2774,0.6875 0.2774,1.8125 0,2.5 -0.2774,0.6875 -0.5044,0.125 -0.5044,-1.25 z m -712.00001,-2 c 0,-1.375 0.22698,-1.9375 0.50439,-1.25 0.27741,0.6875 0.27741,1.8125 0,2.5 -0.27741,0.6875 -0.50439,0.125 -0.50439,-1.25 z m 107,0 c 0,-1.375 0.22698,-1.9375 0.50439,-1.25 0.27741,0.6875 0.27741,1.8125 0,2.5 -0.27741,0.6875 -0.50439,0.125 -0.50439,-1.25 z m 497.92101,-1.58333 c 0.048,-1.16495 0.285,-1.4019 0.6042,-0.60417 0.2889,0.72187 0.2534,1.58438 -0.079,1.91667 -0.3323,0.33229 -0.5687,-0.25834 -0.5253,-1.3125 z M 1124.1949,314.5 c 0.02,-1.65 0.2445,-2.20394 0.4981,-1.23097 0.2535,0.97297 0.2369,2.32297 -0.037,3 -0.2739,0.67703 -0.4813,-0.11903 -0.461,-1.76903 z M 517.15789,314 c 0,-1.375 0.22698,-1.9375 0.50439,-1.25 0.27741,0.6875 0.27741,1.8125 0,2.5 -0.27741,0.6875 -0.50439,0.125 -0.50439,-1.25 z m -107,-1 c 0,-1.375 0.22698,-1.9375 0.50439,-1.25 0.27741,0.6875 0.27741,1.8125 0,2.5 -0.27741,0.6875 -0.50439,0.125 -0.50439,-1.25 z m 607.00001,-1 c 0,-1.375 0.227,-1.9375 0.5044,-1.25 0.2774,0.6875 0.2774,1.8125 0,2.5 -0.2774,0.6875 -0.5044,0.125 -0.5044,-1.25 z m -501.00001,-4 c 0,-1.375 0.22698,-1.9375 0.50439,-1.25 0.27741,0.6875 0.27741,1.8125 0,2.5 -0.27741,0.6875 -0.50439,0.125 -0.50439,-1.25 z m 609.03701,-0.5 c 0.02,-1.65 0.2445,-2.20394 0.4981,-1.23097 0.2535,0.97297 0.2369,2.32297 -0.037,3 -0.2739,0.67703 -0.4813,-0.11903 -0.461,-1.76903 z M 409.15789,306 c 0,-1.375 0.22698,-1.9375 0.50439,-1.25 0.27741,0.6875 0.27741,1.8125 0,2.5 -0.27741,0.6875 -0.50439,0.125 -0.50439,-1.25 z m 609.00001,0 c 0,-1.375 0.227,-1.9375 0.5044,-1.25 0.2774,0.6875 0.2774,1.8125 0,2.5 -0.2774,0.6875 -0.5044,0.125 -0.5044,-1.25 z m -503.00001,-4 c 0,-1.375 0.22698,-1.9375 0.50439,-1.25 0.27741,0.6875 0.27741,1.8125 0,2.5 -0.27741,0.6875 -0.50439,0.125 -0.50439,-1.25 z m -107,-2 c 0,-1.375 0.22698,-1.9375 0.50439,-1.25 0.27741,0.6875 0.27741,1.8125 0,2.5 -0.27741,0.6875 -0.50439,0.125 -0.50439,-1.25 z m 611.03701,-0.5 c 0.02,-1.65 0.2445,-2.20394 0.4981,-1.23097 0.2535,0.97297 0.2369,2.32297 -0.037,3 -0.2739,0.67703 -0.4813,-0.11903 -0.461,-1.76903 z m 106.963,0.5 c 0,-1.375 0.227,-1.9375 0.5044,-1.25 0.2774,0.6875 0.2774,1.8125 0,2.5 -0.2774,0.6875 -0.5044,0.125 -0.5044,-1.25 z m -611.96295,-4.5 c 0.0204,-1.65 0.2445,-2.20394 0.49804,-1.23097 0.25354,0.97297 0.23687,2.32297 -0.0371,3 -0.27393,0.67703 -0.48137,-0.11903 -0.46099,-1.76903 z M 407.15789,293 c 0,-1.375 0.22698,-1.9375 0.50439,-1.25 0.27741,0.6875 0.27741,1.8125 0,2.5 -0.27741,0.6875 -0.50439,0.125 -0.50439,-1.25 z m 613.03701,-0.5 c 0.02,-1.65 0.2445,-2.20394 0.4981,-1.23097 0.2535,0.97297 0.2369,2.32297 -0.037,3 -0.2739,0.67703 -0.4813,-0.11903 -0.461,-1.76903 z m 107,0 c 0.02,-1.65 0.2445,-2.20394 0.4981,-1.23097 0.2535,0.97297 0.2369,2.32297 -0.037,3 -0.2739,0.67703 -0.4813,-0.11903 -0.461,-1.76903 z m -613.99995,-4 c 0.0204,-1.65 0.2445,-2.20394 0.49804,-1.23097 0.25354,0.97297 0.23687,2.32297 -0.0371,3 -0.27393,0.67703 -0.48137,-0.11903 -0.46099,-1.76903 z M 406.27236,284 c 0,-2.475 0.19502,-3.4875 0.43337,-2.25 0.23836,1.2375 0.23836,3.2625 0,4.5 -0.23835,1.2375 -0.43337,0.225 -0.43337,-2.25 z m 614.92254,0.5 c 0.02,-1.65 0.2445,-2.20394 0.4981,-1.23097 0.2535,0.97297 0.2369,2.32297 -0.037,3 -0.2739,0.67703 -0.4813,-0.11903 -0.461,-1.76903 z m 107,0 c 0.02,-1.65 0.2445,-2.20394 0.4981,-1.23097 0.2535,0.97297 0.2369,2.32297 -0.037,3 -0.2739,0.67703 -0.4813,-0.11903 -0.461,-1.76903 z m -615.99995,-4 c 0.0204,-1.65 0.2445,-2.20394 0.49804,-1.23097 0.25354,0.97297 0.23687,2.32297 -0.0371,3 -0.27393,0.67703 -0.48137,-0.11903 -0.46099,-1.76903 z M 405.232,276 c 0,-1.925 0.2058,-2.7125 0.45733,-1.75 0.25152,0.9625 0.25152,2.5375 0,3.5 -0.25153,0.9625 -0.45733,0.175 -0.45733,-1.75 z m 616.9629,0.5 c 0.02,-1.65 0.2445,-2.20394 0.4981,-1.23097 0.2535,0.97297 0.2369,2.32297 -0.037,3 -0.2739,0.67703 -0.4813,-0.11903 -0.461,-1.76903 z m 107,-1 c 0.02,-1.65 0.2445,-2.20394 0.4981,-1.23097 0.2535,0.97297 0.2369,2.32297 -0.037,3 -0.2739,0.67703 -0.4813,-0.11903 -0.461,-1.76903 z M 511.15789,273 c 0,-1.375 0.22698,-1.9375 0.50439,-1.25 0.27741,0.6875 0.27741,1.8125 0,2.5 -0.27741,0.6875 -0.50439,0.125 -0.50439,-1.25 z m 512.03701,-4.5 c 0.02,-1.65 0.2445,-2.20394 0.4981,-1.23097 0.2535,0.97297 0.2369,2.32297 -0.037,3 -0.2739,0.67703 -0.4813,-0.11903 -0.461,-1.76903 z m -618.90889,-5 c 0.008,-2.75 0.20172,-3.75631 0.43157,-2.23625 0.22986,1.52006 0.22371,3.77006 -0.0136,5 -0.23736,1.22994 -0.42542,-0.0138 -0.41792,-2.76375 z m 105.87188,2.5 c 0,-1.375 0.22698,-1.9375 0.50439,-1.25 0.27741,0.6875 0.27741,1.8125 0,2.5 -0.27741,0.6875 -0.50439,0.125 -0.50439,-1.25 z m 620.02711,-3.74001 -0.185,-6.24002 -46.25,-0.27022 -46.25,-0.27022 46.2814,-0.23976 c 38.4145,-0.19901 46.3707,-0.007 46.8068,1.12943 0.289,0.75306 0.3581,3.79056 0.1536,6.75 L 1130.37,268.5 Z M 1024.1949,260.5 c 0.02,-1.65 0.2445,-2.20394 0.4981,-1.23097 0.2535,0.97297 0.2369,2.32297 -0.037,3 -0.2739,0.67703 -0.4813,-0.11903 -0.461,-1.76903 z M 509.15789,260 c 0,-1.375 0.22698,-1.9375 0.50439,-1.25 0.27741,0.6875 0.27741,1.8125 0,2.5 -0.27741,0.6875 -0.50439,0.125 -0.50439,-1.25 z m -103.90115,-4 c 0.22494,-0.825 1.2717,-1.60456 2.32613,-1.73237 1.34704,-0.16326 1.47108,-0.0443 0.41713,0.39995 -0.825,0.34777 -1.87176,1.12733 -2.32613,1.73236 -0.53136,0.70754 -0.6802,0.56484 -0.41713,-0.39994 z M 495.25,254.28375 c 1.5125,-0.22913 3.9875,-0.22913 5.5,0 1.5125,0.22912 0.275,0.41659 -2.75,0.41659 -3.025,0 -4.2625,-0.18747 -2.75,-0.41659 z m -80.47357,-1.01725 c 2.35204,-0.21124 5.95204,-0.20827 8,0.007 2.04796,0.21487 0.12357,0.38771 -4.27643,0.38408 -4.4,-0.004 -6.07561,-0.17944 -3.72357,-0.39069 z m 39.02105,-0.0113 c 4.56362,-0.18572 11.76362,-0.18468 16,0.002 4.23639,0.18698 0.50252,0.33893 -8.29748,0.33766 -8.8,-0.001 -12.26613,-0.15425 -7.70252,-0.33996 z m -94.1794,-51.58417 C 356.2139,198.03672 335.81475,170.05664 317.5724,144 l -11.55171,-16.5 0.10566,-6.5 c 0.0581,-3.575 0.31145,-5.7125 0.56298,-4.75 0.43471,1.66348 23.27021,1.75 461.86954,1.75 h 461.41223 l 0.2794,-30.75 0.2795,-30.75 0.235,36.639267 0.235,36.639263 -17.6553,23.36074 c -22.5239,29.80275 -28.1512,36.81039 -36.2252,45.11073 l -6.5659,6.75 H 766.6449 362.73615 Z M 305.42019,74.5 c -8.9e-4,-11 0.14522,-15.636437 0.32467,-10.303194 0.17945,5.333244 0.18018,14.333244 0.002,20 C 305.5679,89.863563 305.42107,85.5 305.42019,74.5 Z m -1.26015,-40.690983 c -0.088,-4.780041 0.17746,-8.900852 0.58996,-9.157358 0.4125,-0.256506 0.62469,2.304437 0.47153,5.690983 -0.49874,11.028011 -0.89823,12.332575 -1.06149,3.466375 z M 1229.5,25 c -0.3399,-0.55 -0.1415,-1 0.441,-1 0.5824,0 1.059,0.45 1.059,1 0,0.55 -0.1984,1 -0.441,1 -0.2425,0 -0.7191,-0.45 -1.059,-1 z M 580.83152,24.25001 c 112.38233,-0.140153 295.98233,-0.14015 408,6e-6 C 1100.8492,24.390172 1008.9,24.504843 784.5,24.50484 560.1,24.504837 468.44918,24.390163 580.83152,24.25001 Z"
         id="path3" />
      <path
         style="fill:#353838"
         d="m 305.66541,1516.5705 c -0.93422,-2.4346 -0.80503,-87.8026 0.13512,-89.282 0.60135,-0.9463 101.35312,-1.1652 460.23468,-1 372.74959,0.1716 459.88939,-0.031 461.71479,-1.0737 1.8329,-1.0469 2.2649,-1.0469 2.3303,0 0.4558,7.2977 -0.4132,84.3833 -0.975,86.4839 -0.6537,2.4442 -1.3647,2.8772 -5.6763,3.4572 -12.0236,1.6172 -55.1811,1.8428 -474.01359,2.4773 -419.86607,0.6361 -443.11946,0.5804 -443.75,-1.0627 z m 97.95572,-219.3745 c -0.88468,-1.4315 0.96865,-31.8731 2.93425,-48.196 10.17709,-84.5135 46.71982,-185.6401 98.28886,-272 11.69303,-19.58168 34.75263,-53.98928 47.93067,-71.5181 24.24204,-32.24567 42.60053,-52.92082 82.18564,-92.55663 C 675.46858,772.36534 693.93441,756.11978 755.5,706.87908 806.71038,665.92056 825.76954,649.35416 853.07834,622.06306 884.773,590.38894 902.84487,568.20135 927.24955,531 c 56.4693,-86.07918 83.66025,-158.14881 95.34325,-252.7076 1.5762,-12.75696 3.2042,-22.34297 3.8255,-22.52569 0.5949,-0.17496 24.2091,-0.15491 52.476,0.0445 l 51.3943,0.36264 -0.5811,11.16306 c -1.2277,23.58298 -8.3648,68.988 -15.1157,96.16305 -13.5959,54.7289 -32.1146,103.90637 -59.686,158.5 -36.7901,72.84747 -78.04516,129.42169 -141.3578,193.84782 -31.62811,32.18436 -57.32307,55.02402 -121.47778,107.97881 -56.22194,46.4069 -64.82749,53.97164 -90.63542,79.67337 -57.54266,57.30587 -91.76077,101.68164 -124.98423,162.08574 -36.31355,66.0222 -57.85388,133.5437 -67.4286,211.3653 -1.11322,9.0481 -2.43409,16.8611 -2.93527,17.3623 -2.0519,2.0519 -101.25416,4.8428 -102.46557,2.8827 z M 1039,1297.1176 c -4.125,-0.378 -8.0072,-1.0015 -8.627,-1.3855 -1.7254,-1.0688 -3.0353,-7.4669 -5.8618,-28.6307 -8.0725,-60.4447 -23.0847,-111.7431 -49.44555,-168.9612 C 956.50077,1057.8438 920.57235,999.92491 892.47568,965 873.69924,941.66038 831.51867,898.66529 807.49073,878.37396 792.00115,865.29318 790.26004,863.41053 791.61259,861.20506 794.62986,856.28507 872.47297,796 875.80862,796 c 3.93542,0 44.04436,38.63146 68.04044,65.53405 63.11114,70.75541 110.21314,147.24185 143.13934,232.43605 22.1082,57.2033 39.0765,125.3443 42.9972,172.6676 1.174,14.1711 1.3068,29.0722 0.2644,29.6857 -1.3379,0.7875 -83.5184,1.5028 -91.25,0.7942 z M 656.81623,746.93574 C 635.75821,730.05174 593.94309,688.48771 574.38553,665 542.50475,626.71269 507.47274,574.58437 482.65286,528.5 442.68291,454.28571 417.70633,372.6147 406.04507,278 c -1.27956,-10.38188 -1.32648,-20.00689 -0.10691,-21.93419 1.5024,-2.37425 21.23775,-3.02686 62.39217,-2.0632 24.62282,0.57656 38.29002,1.26735 39.14705,1.97862 1.26307,1.04825 2.06889,5.70468 6.57931,38.01877 11.09962,79.52104 42.32412,160.02603 89.7735,231.45973 17.93829,27.00557 42.36439,57.84314 65.76334,83.02517 16.69891,17.97142 47.98143,48.31892 61.58534,59.74457 6.22662,5.22962 12.22113,10.5192 13.32113,11.75462 l 2,2.24623 -7,6.51456 C 720.85909,706.09309 666.39442,752 664.45315,752 c -0.72638,0 -4.16299,-2.27892 -7.63692,-5.06426 z m 94.3069,-289.3922 c 0.90563,-0.90564 16.47931,-1.33228 20.87687,-0.57193 3.36558,0.58191 1.24378,0.80961 -8.41667,0.90322 -7.10416,0.0688 -12.71125,-0.0802 -12.4602,-0.33129 z M 651.25,427.88495 c -3.40851,-2.18287 -4.51156,-3.64875 -1.5,-1.99341 2.29443,1.26116 5.88883,4.0407 5.25,4.05981 -0.275,0.008 -1.9625,-0.92165 -3.75,-2.0664 z M 306.64708,115.25 c -0.28151,-1.5125 -0.65476,-22.484233 -0.82945,-46.603851 L 305.5,24.792298 l 461.9388,0.09265 c 254.0663,0.05096 462.3025,0.456313 462.7469,0.900789 0.4445,0.444476 0.5112,21.374516 0.1482,46.5112 L 1229.6738,118 H 768.41638 307.15891 Z"
         id="path2" />
    </g>
  </g>
</svg>
