<?xml version="1.0" standalone="no"?>
<!DOCTYPE svg PUBLIC "-//W3C//DTD SVG 20010904//EN"
 "http://www.w3.org/TR/2001/REC-SVG-20010904/DTD/svg10.dtd">
<svg version="1.0" xmlns="http://www.w3.org/2000/svg"
 width="1536.000000pt" height="1536.000000pt" viewBox="0 0 1536.000000 1536.000000"
 preserveAspectRatio="xMidYMid meet">

<g transform="translate(0.000000,1536.000000) scale(0.100000,-0.100000)"
fill="#000000" stroke="none">
<path d="M7240 14974 c-492 -25 -1029 -80 -1455 -149 -82 -13 -199 -31 -259
-40 -186 -28 -601 -107 -861 -165 -71 -16 -175 -39 -230 -50 -127 -27 -276
-67 -319 -85 -76 -32 -139 -108 -180 -220 -26 -66 -62 -223 -54 -230 2 -3 29
2 59 10 121 32 569 94 894 125 447 42 642 61 735 71 237 26 1232 37 1749 19
491 -17 1077 -62 1391 -105 204 -29 431 -67 426 -72 -1 -2 -79 4 -172 12 -518
46 -1736 46 -2458 0 -633 -40 -1198 -113 -1726 -222 -96 -19 -200 -40 -230
-45 -60 -10 -354 -79 -435 -103 -27 -8 -95 -27 -150 -42 -81 -23 -102 -33
-113 -53 -10 -20 -12 -66 -8 -215 9 -291 32 -470 65 -498 18 -15 213 -83 336
-117 144 -39 218 -69 312 -125 6 -4 35 -402 53 -730 24 -442 73 -765 162
-1065 102 -345 269 -676 442 -878 121 -141 205 -233 351 -382 94 -96 242 -249
330 -340 88 -91 344 -352 570 -580 988 -999 960 -969 974 -1076 18 -128 -12
-177 -243 -414 -100 -102 -314 -322 -476 -490 -162 -168 -553 -567 -868 -887
-316 -320 -606 -622 -644 -670 -210 -262 -346 -539 -457 -923 -84 -292 -113
-508 -156 -1145 -19 -285 -22 -304 -49 -334 -44 -48 -192 -105 -526 -200 -111
-32 -150 -59 -150 -104 0 -12 -7 -44 -16 -72 -25 -81 -31 -438 -10 -655 36
-371 94 -607 169 -689 35 -38 118 -96 184 -130 219 -110 1194 -373 1708 -460
183 -31 447 -68 575 -81 63 -6 194 -20 290 -30 275 -30 412 -39 745 -46 866
-18 1859 103 2755 337 107 29 213 56 235 61 113 26 567 175 657 216 90 41 187
127 225 198 33 62 78 244 109 434 25 157 31 646 10 799 -21 151 -31 168 -131
208 -44 17 -102 37 -130 44 -138 32 -299 85 -382 125 l-93 44 0 123 c0 115 -4
180 -30 527 -46 601 -131 964 -310 1325 -166 335 -185 357 -840 1020 -206 209
-438 445 -514 525 -142 147 -188 195 -766 789 -179 183 -340 355 -359 382 -31
44 -34 55 -35 121 0 54 6 89 23 133 22 55 49 86 327 365 167 168 353 357 414
420 62 63 270 275 464 470 702 708 889 906 1033 1096 241 317 411 713 503
1174 51 254 110 842 126 1250 3 96 10 183 15 192 5 10 24 25 41 34 33 17 34
18 321 118 196 68 245 91 269 129 8 12 20 63 26 112 7 50 20 149 29 220 35
262 16 838 -32 975 -47 133 -155 216 -356 274 -101 29 -537 124 -764 167 -88
17 -205 39 -260 50 -376 71 -962 150 -1490 200 -198 19 -305 22 -765 24 -294
1 -564 1 -600 -1z m-1172 -2526 c7 -24 17 -88 22 -143 15 -148 37 -277 116
-695 33 -176 122 -532 184 -740 75 -252 150 -455 291 -795 96 -230 263 -543
449 -840 98 -157 139 -217 259 -386 24 -34 38 -58 30 -53 -25 15 -426 433
-498 519 -250 297 -534 690 -758 1050 -281 451 -519 1020 -663 1580 -57 223
-103 471 -91 493 8 15 32 21 123 31 62 6 127 13 143 15 17 2 109 4 205 5 l176
1 12 -42z m1490 -6700 c-66 -79 -125 -160 -209 -288 -397 -603 -662 -1227
-858 -2025 -62 -249 -137 -673 -177 -1000 -16 -126 -33 -233 -39 -237 -24 -18
-794 -2 -813 17 -7 6 31 220 59 340 38 157 137 465 204 635 132 335 272 616
499 1005 236 403 550 804 927 1186 182 184 441 429 448 423 2 -2 -17 -27 -41
-56z"/>
<path d="M6295 8830 c10 -11 20 -20 23 -20 3 0 -3 9 -13 20 -10 11 -20 20 -23
20 -3 0 3 -9 13 -20z"/>
</g>
</svg>
